<svg xmlns="http://www.w3.org/2000/svg" viewBox="0 0 1120 700"><circle cx="247.1" cy="92.7" r="57.6" fill="#ff6584"/><path d="M527.3 308.8c0 135.8-80.8 183.3-180.4 183.3s-180.4-47.5-180.4-183.3S346.9 0 346.9 0s180.4 172.9 180.4 308.8z" fill="#f2f2f2"/><path fill="#3f3d56" d="M340.3 471.3l1.9-113.7 76.9-140.7-76.6 122.8.8-51.1 53-101.8-52.8 88.3 1.5-92 56.8-81-56.6 66.5 1-168.6-5.9 223.2.5-9.2-57.7-88.3 56.8 106-5.4 102.7-.2-2.7-66.5-92.9 66.3 102.5-.7 12.9-.1.2.1 1L319.7 616H338l2.1-134.6 66.2-102.3-66 92.2z"/><path d="M1064.2 364.4c0 111.2-66.1 150.1-147.7 150.1s-147.7-38.9-147.7-150.1 147.7-252.7 147.7-252.7 147.7 141.5 147.7 252.7z" fill="#f2f2f2"/><path fill="#3f3d56" d="M911.1 497.5l1.5-93.1 63-115.2-62.7 100.6.6-41.9 43.4-83.3-43.2 72.2 1.2-75.2 46.5-66.4-46.3 54.5.8-138-4.8 182.7.4-7.5-47.2-72.3 46.4 86.8-4.4 84-.1-2.2-54.5-76.1 54.3 84-.5 10.5-.1.2v.8l-11.1 213.3h14.9l1.8-110.2 54.1-83.7-54 75.5z"/><ellipse cx="554.9" cy="612.3" rx="499" ry="25.2" fill="#3f3d56"/><ellipse cx="858.9" cy="654" rx="85.5" ry="4.3" fill="#3f3d56"/><ellipse cx="549.6" cy="695.7" rx="85.5" ry="4.3" fill="#3f3d56"/><ellipse cx="314.9" cy="660.7" rx="195.3" ry="9.9" fill="#3f3d56"/><circle cx="143.2" cy="509.6" r="71.1" fill="#2f2e41"/><path fill="#2f2e41" d="M109.696 603.815l.473-38.697 21.598.264-.473 38.697zM152.923 604.425l.472-38.698 21.599.264-.473 38.697z"/><ellipse cx="127.7" cy="604.3" rx="6.7" ry="18" transform="rotate(-89.3 127.805 604.389)" fill="#2f2e41"/><ellipse cx="170.9" cy="603.9" rx="6.7" ry="18" transform="rotate(-89.4 170.188 603.507)" fill="#2f2e41"/><circle cx="145.2" cy="491.6" r="24.3" fill="#fff"/><circle cx="145.2" cy="491.6" r="8.1" fill="#3f3d56"/><path d="M75 442.6c-5.4-25.7 13.2-51.5 41.7-57.5s55.9 10 61.3 35.8-13.5 35-41.9 41-55.7 6.5-61.1-19.3z" fill="#fc0"/><path d="M251.6 549.2c0 49.6-29.4 66.9-65.8 66.9h-2.5l-5-.2c-32.8-2.3-58.3-20.5-58.3-66.6 0-47.7 61-107.9 65.5-112.3h.1l.2-.3s65.8 63 65.8 112.5z" fill="#fc0"/><path d="M183.4 608.5l24.1-33.6-24.1 37.3v3.8l-5-.2 2.6-49.6v-.4l.3-4.7-24.3-37.4 24.2 33.9v1l1.9-37.5-20.7-38.6 21 32 2-77.6-.4 61.2 20.6-24.3-20.7 29.6-.5 33.5 19.2-32.2-19.3 37.2-.3 18.6 27.9-44.8-28 51.3z" fill="#3f3d56"/><circle cx="696.9" cy="508.8" r="71.1" fill="#2f2e41"/><path fill="#2f2e41" d="M682.5 571.426l20.646-6.351 11.376 36.98-20.645 6.35zM723.74 558.644l20.646-6.352 11.376 36.98-20.645 6.351z"/><ellipse cx="711.1" cy="603.8" rx="18" ry="6.7" transform="rotate(-16.8 722.035 610.09)" fill="#2f2e41"/><ellipse cx="752.1" cy="590.2" rx="18" ry="6.7" transform="rotate(-17.1 751.353 589.766)" fill="#2f2e41"/><circle cx="693.4" cy="491.1" r="24.3" fill="#fff"/><circle cx="693.4" cy="491.1" r="8.1" fill="#3f3d56"/><path d="M611.6 465.8c-13-22.8-3.1-53.1 22.1-67.4s56.3-7.6 69.4 15.3-2.2 37.5-27.4 51.9-51.1 23.1-64.1.2zM570.2 540.1c0 45.5-27.1 61.4-60.4 61.4h-2.4l-4.5-.2c-30.2-2.2-53.5-18.9-53.5-61.2 0-43.8 55.9-99 60.1-103.1l.3-.2s60.4 57.8 60.4 103.3z" fill="#fc0"/><path d="M507.6 594.6l22.1-30.9-22.2 34.2v3.6l-4.5-.2 2.3-45.5v-.4h.1l.2-4.3-22.2-34.3 22.3 31.1v.9l1.8-34.4-19-35.4 19.2 29.4 1.9-71.3-.3 56.2 18.9-22.3-19 27.2-.5 30.8 17.7-29.6-17.7 34.1-.3 17.1 25.6-41.1-25.7 47.1z" fill="#3f3d56"/><path d="M807.7 559.1c0 49.6-29.4 66.9-65.8 66.9h-2.5l-5-.2c-32.8-2.3-58.3-20.5-58.3-66.6 0-47.7 61-107.9 65.5-112.3h.1l.2-.3s65.8 62.9 65.8 112.5z" fill="#fc0"/><path d="M739.5 618.4l24.1-33.6-24.1 37.3v3.8l-5-.2 2.6-49.6v-.4l.3-4.7-24.2-37.4 24.2 33.9v1l2-37.5-20.8-38.7 21 32.1 2-77.6-.4 61.2 20.6-24.3-20.7 29.6-.5 33.5 19.2-32.2-19.3 37.2-.3 18.6 27.9-44.8-28 51.3z" fill="#3f3d56"/><ellipse cx="669.3" cy="536.1" rx="11.2" ry="35.5" transform="rotate(-64.6 669.659 536.145)" fill="#2f2e41"/><ellipse cx="121.3" cy="531.6" rx="11.2" ry="35.5" transform="rotate(-68.2 121.139 531.35)" fill="#2f2e41"/></svg>