<svg xmlns="http://www.w3.org/2000/svg" viewBox="0 0 1120 700"><circle cx="292.6" cy="213" r="213" fill="#f2f2f2"/><path d="M.2,51.6c0,77.5,48.6,140.3,108.7,140.3" transform="translate(-0.2 -0.5)" fill="#333"/><path d="M108.9,191.9c0-78.4,54.3-141.8,121.3-141.8M39.6,58.7c0,73.6,31,133.2,69.3,133.2" transform="translate(-0.2 -0.5)" fill="#fc0"/><path d="M108.9,191.9c0-100.2,62.7-181.2,140.2-181.2" transform="translate(-0.2 -0.5)" fill="#333"/><path d="M86,192.8s15.4-.4,20.1-3.7,23.7-7.3,24.9-2,23.1,26.4,5.7,26.5-40.4-2.7-45.1-5.5S86,192.8,86,192.8Z" transform="translate(-0.2 -0.5)" fill="#a8a8a8"/><path d="M137,211.8c-17.4.1-40.4-2.7-45-5.6s-5-9.8-5.5-13.4H86s1,12.5,5.6,15.3,27.7,5.7,45.1,5.5c5,0,6.8-1.8,6.7-4.4-.7,1.6-2.6,2.6-6.4,2.6Z" transform="translate(-0.2 -0.5)" opacity="0.2" style="isolation:isolate"/><ellipse cx="198.6" cy="424.5" rx="187" ry="25.4" fill="#444"/><ellipse cx="198.6" cy="424.5" rx="157" ry="21.4" opacity="0.1" style="isolation:isolate"/><ellipse cx="836.6" cy="660.5" rx="283" ry="38.5" fill="#444"/><ellipse cx="310.6" cy="645.5" rx="170" ry="23.1" fill="#444"/><path d="M462.8,626.5c90,23,263-30,282-90m-435-277s130-36,138,80-107,149-17,172M184.2,537.8s39.1-10.8,41.5,24-32.2,44.8-5.1,51.7" transform="translate(-0.2 -0.5)" fill="none" stroke="#2f2e41" stroke-miterlimit="10" stroke-width="2"/><path d="M778.9,563.7,771,614s-38.8,20.6-11.5,21.2,155.7,0,155.7,0,24.9,0-14.5-21.8l-7.9-52.7Z" transform="translate(-0.2 -0.5)" fill="#333"/><path d="M754,634.7c6.2-5.5,17-11.3,17-11.3l7.9-50.2H892.8l7.9,49.5c9.2,5.1,14.9,9,18.2,12,5.1-1.1,10.6-5.4-18.2-21.4l-7.9-52.7-113.9,3L771,614S738.4,631.3,754,634.7Z" transform="translate(-0.2 -0.5)" opacity="0.1" style="isolation:isolate"/><rect x="578.4" y="212.7" width="513.3" height="357.52" rx="18" fill="#333"/><circle cx="835.1" cy="223.3" r="3" fill="#f2f2f2"/><path d="M1091.9,521.3v31.4a18.1,18.1,0,0,1-18.1,18H596.7a18.1,18.1,0,0,1-18.1-18V521.3ZM969.2,668v6h-326v-4.8l.4-1.2,8-21.8H962.5Zm125.4-6c-.6,2.6-2.8,5.3-7.9,7.8-18.1,9.1-55.1-2.4-55.1-2.4s-28.5-4.9-28.5-17.6a12.8,12.8,0,0,1,2.5-1.5c7.6-4,33-14,77.9.4a19.8,19.8,0,0,1,8.6,5.6C1093.9,656.5,1095.3,659.2,1094.6,662Z" transform="translate(-0.2 -0.5)" fill="#333"/><path d="M1094.6,662c-22.2,8.6-42.1,9.2-62.4-4.9-10.3-7.2-19.6-8.9-26.6-8.8,7.6-4,33-14,77.9.4a19.8,19.8,0,0,1,8.6,5.6C1093.9,656.5,1095.3,659.2,1094.6,662Z" transform="translate(-0.2 -0.5)" opacity="0.1" style="isolation:isolate"/><ellipse cx="1066.5" cy="654.1" rx="7.9" ry="2.4" fill="#f2f2f2"/><circle cx="835.1" cy="545.7" r="11.5" fill="#f2f2f2"/><path d="M969.2,668v6h-326v-4.8l.4-1.2Z" transform="translate(-0.2 -0.5)" opacity="0.1" style="isolation:isolate"/><path d="M108.8,159.5h208v242h-208Z" transform="translate(-0.2 -0.5)" fill="#333"/><path d="M87.8,135.5h250v86H87.8Zm0,102h250v86H87.8Zm0,102h250v86H87.8Z" transform="translate(-0.2 -0.5)" fill="#444"/><path d="M271.8,150.5h16v16h-16Z" transform="translate(-0.2 -0.5)" fill="#fc0" opacity="0.4" style="isolation:isolate"/><path d="M294.8,150.5h16v16h-16Z" transform="translate(-0.2 -0.5)" fill="#fc0" opacity="0.8" style="isolation:isolate"/><path d="M317.8,150.5h16v16h-16Z" transform="translate(-0.2 -0.5)" fill="#fc0"/><path d="M271.8,251.5h16v16h-16Z" transform="translate(-0.2 -0.5)" fill="#fc0" opacity="0.4" style="isolation:isolate"/><path d="M294.8,251.5h16v16h-16Z" transform="translate(-0.2 -0.5)" fill="#fc0" opacity="0.8" style="isolation:isolate"/><path d="M317.8,251.5h16v16h-16Z" transform="translate(-0.2 -0.5)" fill="#fc0"/><path d="M271.8,352.5h16v16h-16Z" transform="translate(-0.2 -0.5)" fill="#fc0" opacity="0.4" style="isolation:isolate"/><path d="M294.8,352.5h16v16h-16Z" transform="translate(-0.2 -0.5)" fill="#fc0" opacity="0.8" style="isolation:isolate"/><path d="M317.8,352.5h16v16h-16Z" transform="translate(-0.2 -0.5)" fill="#fc0"/><circle cx="316.6" cy="538" r="79" fill="#333"/><path d="M280.8,600.5h24v43h-24Zm48,0h24v43h-24Z" transform="translate(-0.2 -0.5)" fill="#333"/><ellipse cx="300.6" cy="643.5" rx="20" ry="7.5" fill="#333"/><ellipse cx="348.6" cy="642.5" rx="20" ry="7.5" fill="#333"/><circle cx="318.6" cy="518" r="27" fill="#fff"/><circle cx="318.6" cy="518" r="9" fill="#444"/><path d="M240.2,465c-6.4-28.5,14-57.4,45.5-64.4S348,411,354.4,439.5s-14.6,39.1-46.1,46.2-61.7,7.9-68.1-20.7Z" transform="translate(-0.2 -0.5)" fill="#fc0"/><ellipse cx="386.1" cy="511" rx="39.5" ry="12.4" transform="translate(-170.3 192.9) rotate(-23.2)" fill="#333"/><ellipse cx="238.2" cy="564.1" rx="39.5" ry="12.4" transform="translate(-203.2 138.9) rotate(-23.2)" fill="#333"/><path d="M362.8,561.5c0,7.7-19.9,23-42,23s-43-14.3-43-22,20.9-6,43-6S362.8,553.8,362.8,561.5Z" transform="translate(-0.2 -0.5)" fill="#fff"/><path d="M595.9,232.3h478.7V500.1H595.9Z" transform="translate(-0.2 -0.5)" fill="#444"/><path d="M692.9,381.2l6,11.9s-6.9,5.6-20.2,5.6c-17.2,0-33.1-14.1-33.1-31.6s15.8-31.9,33.1-31.9c13.3,0,20.2,5.7,20.2,5.7l-6,11.8a21.3,21.3,0,0,0-12-3.7c-14.1,0-20.2,9.8-20.2,17.9s6.1,18,20.2,18A21.3,21.3,0,0,0,692.9,381.2Zm25.8-37.4a7.8,7.8,0,1,1-7.8-7.8A7.8,7.8,0,0,1,718.7,343.8Zm-14.5,53.8h13.1V359.5H704.2Zm83.3-53.8a7.8,7.8,0,1,1-7.8-7.8A7.8,7.8,0,0,1,787.5,343.8Zm-14.6,53.8h13.2V359.5H772.9Zm33.6-19.1a9.3,9.3,0,0,0,9.1,9.5h0a12,12,0,0,0,6.4-1.9l4.4,9.2s-4.3,3.4-12.7,3.4c-11,0-21.1-8.9-21.1-20s10-20.3,21.1-20.3c8.4,0,12.7,3.6,12.7,3.6l-4.4,8.9a11,11,0,0,0-6.4-1.7,9.2,9.2,0,0,0-9.1,9.2Zm59.5,6.9h21v12.2H852V336.3h14Zm44.1-27a17.4,17.4,0,0,1,12.5,4.7v-3.6h13.2v38.1h-13v-4.4h-.2a16.9,16.9,0,0,1-12.5,5.5c-11.1,0-18.9-9-18.9-20.1S899,358.4,910.1,358.4Zm3.9,29.1a8.6,8.6,0,0,0,8.9-8.3v-.6a8.9,8.9,0,1,0-17.8-1.8v1.8a8.6,8.6,0,0,0,8.2,8.9Zm56.2,11.2a16.8,16.8,0,0,1-12.4-5.5h-.2v4.4h-13V333.8h13.2v29.3a17.3,17.3,0,0,1,12.4-4.7c11.2,0,19,9,19,20.2S981.4,398.7,970.2,398.7Zm-3.9-29.1a8.7,8.7,0,0,0-8.8,8.5v.5a8.9,8.9,0,1,0,17.7,0,8.7,8.7,0,0,0-8.3-9Zm58-8.2-4.4,8.5s-4.4-2.3-8.4-2.3-4.1.5-4.1,2.3,2.7,2.6,5.9,3.6c5.1,1.6,11.7,4.4,11.7,12.2,0,11.2-10.4,13-18.1,13a22.3,22.3,0,0,1-14.7-5.1l5.3-9s5.2,4.4,9.4,4.4c1.9,0,4.1-.3,4.1-2.8s-4.1-2.9-8.4-5.2-7.7-4.7-7.7-10.4c0-7.8,6.6-12.2,16.6-12.2a28.6,28.6,0,0,1,12.8,3Z" transform="translate(-0.2 -0.5)" fill="#fff"/><path d="M764.4,397.6l-38.2-38.3h38.2Z" transform="translate(-0.2 -0.5)" fill="#fc0"/></svg>
