<svg xmlns="http://www.w3.org/2000/svg" viewBox="0 0 175 45"><g fill-rule="evenodd" clip-rule="evenodd"><g fill="#091c5a"><path d="M-.04 12.46c1.34 0 2.26.28 2.84.86.65.64.93 1.7.93 3.45v21.75c0 3.01-.63 4.35-4.36 4.35h-.5v1.34h16.75v-1.33h-.5c-3.7-.05-4.32-1.39-4.32-4.36V16.77c0-1.74.28-2.8.93-3.44.58-.59 1.53-.87 2.89-.87h1V11.1H-1.14v1.36h1.1zM53.55 33.11s-.29-1.36-.33-2.12v-9.93c-.07-5.8.72-8.68-4.35-8.66v-1.3h11.67v1.3c-5.23-.02-4.57 2.86-4.6 8.66v23.2l-1.66-.02L29.1 17.91s.28 1.35.33 2.11V36.3c-.15 5.94.59 6.66 4.42 6.59v1.35H21.68v-1.35c3.83 0 4.58-.5 4.58-7.07v.4-16.04l-.03-2.55c.14-3.3-1.08-5.2-4.8-5.17v-1.3h11.2L53.55 33.1zM95.78 10.47h-1.29l-.06.44c-.08.65-.34 1.75-1.1 1.75-.2 0-.74-.1-1.34-.37a23.69 23.69 0 00-8.82-1.82c-5.52 0-10.54 1.97-14.12 5.57a17.62 17.62 0 00-5.07 12.65c.03 4.65 1.86 8.48 5.6 11.7C73.37 43.63 77.6 45 83.75 45c5.12 0 8.05-.73 12.55-3.15l.79-.42v-8.68c0-3.7.45-4.28 3.47-4.4l.49-.02v-1.29H86.32v1.29l.49.02c3.35.13 3.99.73 3.99 3.79v8.04c-2.5 1.64-4.3 2.27-6.59 2.27a12.1 12.1 0 01-8.69-3.61c-2.7-2.7-4.02-6.64-4.02-11.08 0-4.8 1.28-8.88 3.9-11.5 2.1-2.1 4.88-3.26 8.06-3.26 2.83 0 6.12 1.21 8.38 3a9.84 9.84 0 013.5 5.36l.12.36h1.26l-.94-11.25z"/></g><path fill="#fff" d="M160.26 44.12c.82-.12 1.7-.1 2.34-.7 2.77.42 5.57-.26 7.75-1.79 1.14-.92 2.17-1.99 3-3.16a11.38 11.38 0 001.7-3.14c.28-.71.5-1.46.67-2.22a21.02 21.02 0 00-1.52-12.83c-1.46-3.01-3.44-6.26-6.5-8.16a13.04 13.04 0 01-4.28-4.45c-.53-.48-1.03-1.1-1.72-1.22.19.3.4.61.45.97l-.04.05c-.73.02-1.3-.36-1.8-.82l.55-.5c-.2-.1-.44-.15-.67-.2-2.09-.24-3.8.73-5.66 1.2l-.03.1c1.14.5 1.37 1.75 2.04 2.6.16-.2.44-.05.67-.07.33.02.64.26.96.17.01-.27-.14-.5-.2-.74.2-.1.44-.01.66 0 .6.35 1.56-.06 1.93.74-.68.05-1.32.2-1.96.35.04.25.3.46.28.72a6.5 6.5 0 00-1.74-.44l-.03.09a5.99 5.99 0 002.93 1.77c1.56.36 2.94-.39 4.45-.13 3.7 1.7 6.87 5.58 8.25 9.26.07.18.13.36.2.54a17.9 17.9 0 01.21 11 13.48 13.48 0 01-2.38 4.02c-.4.51-.86.96-1.35 1.34a6.1 6.1 0 01-5.45 1.2c-.12-.08-.37-.1-.33-.32a21.79 21.79 0 00.58-6.1c0-.07 0-.15 0-.22a19.95 19.95 0 00-1.57-7.1 24.69 24.69 0 00-2.23-3.9 9.26 9.26 0 00-4.15-3.42c-1.06-.28-2.36-.33-3.16.55-.57.5-.8 1.17-.72 1.9-.9.56-1.9.87-2.99.96-.26.02-.54.12-.81.12-.27.01-.52 0-.78-.03a7.66 7.66 0 01-3.64-1.68c-.02-.53-.05-1.04-.07-1.6a1.94 1.94 0 01-1.1-1.55l.05-.05c.33.1.62.27.92.44-.13-.8-.29-1.6-.69-2.3-.37-.16-.75-.28-1.1-.47-.4-.27-.66-.76-.72-1.2.36.35 1 .23 1.27.6-.49-1.44-.5-3.08-1.3-4.4-.4-.97-1.45-1.41-2.18-2.13-.28-.34-.4-.81-.9-.87-.41-.1-.44-.56-.52-.86.26.03.48.2.7.24-.6-1.59-1.13-3.36-2.76-4.37l-.28.18c-.63.09-1.3.13-1.93.15.28-.41.77-.59 1.17-.78a2.78 2.78 0 00-1.4-.51c-.33.33-.93.5-1.36.59l-.05-.04c-.01-.38-.1-.83.47-.93-.54-.25-1.44-.15-1.98 0-.16.4-.6.77-.57 1.25-.32.33-.55.77-.88 1.01-.01-.8.33-1.53.47-2.2-.46.17-.94.42-1.4.64-.73-.42-1.5-.85-2.29-1.17-.07-.03-.22-.06-.2.07.68.49.42 1.4.5 2.1l-.43-.36c-.21-.53-.8-.9-.91-1.49a7.9 7.9 0 00-1.8.6l-.1.05c.49 0 .9.39 1.14.77-.74.04-1.39-.25-2.11-.32-.08-.07-.14-.16-.25-.15-.36.14-.68.4-1 .64a6.95 6.95 0 00-1.78 2.41c.24.04.54.03.72.18-.4.24-.74.64-1.12.87-.13.54-.11 1.15-.14 1.74-.3.45-.7.85-.9 1.36-.65 2.08-.81 4.39-.72 6.74-.2.2-.48.33-.67.48l.02 2.11h.05c.1-.44.62-.69.94-1h.1c-.04.48-.1.96-.12 1.45l-.6.5c-.6.52-.09 1.32-.14 1.98.04.17.07.43.2.48.07-.26.3-.45.44-.68.26-.06.49-.27.72-.3-.13.52-.3 1.03-.51 1.52-.1.07-.22.16-.32.26-.1.12-.19.24-.21.38.47 2.45 1.2 4.87 2.04 7.18-.57.96-.9 2.1-1.37 3.09-.07.14-.13.28-.18.42-.48 1.2-.63 2.55-1.22 3.7-.24-.16-.5-.28-.76-.4a3.12 3.12 0 00-3.23.73 2.77 2.77 0 00-2.04.37c-.41.3-.73.67-.9 1.1-.13.3-.19.63-.17.99-.46.32-.71.81-.87 1.31a4.08 4.08 0 00.82 3.14h51.6z"/><path fill="#fff" d="M153.41 20.86c-.01.27-.2.57-.03.8.25-.28.66-.27 1-.4.91-.07 1.8.21 2.65.42-.21-.34-.36-.72-.6-1.03-.47-.12-1.2.2-1.28-.5-.3-.25-.75-.07-1.05-.05-.29.2-.52.47-.69.76zM121.77 11.94s-.01-.01-.02-.01h.02zM125.53 21.13l.62-.6c.06 0 .1.01.13.05l-.05 1.15c.3.28.67.37 1.06.4.03-.32.27-.54.4-.8.12-.22.05-.54.27-.7l.08.07c.07.34.05.73.23 1.03.02.16.05.37.07.51.45.03.86-.1 1.22-.26-.02-.4.11-.72.17-1.08.1-.13-.11-.35.15-.34.14.3.4.63.55.96.6-.61.85-1.4 1-2.23-.18-.24-.45-.24-.66-.4-1.76-.57-4.02-.68-5.72.2-.1.7.04 1.48.48 2.04zM109.08 40.54c-.06.8 0 1.54.05 2.33.17.25.47.56.76.58l.06-.53c.12-.74-.27-1.52.14-2.14.3.1.58.24.83.37.12-.68-.05-1.47-.7-1.89l-1.14 1.28zM111.63 39.42c-.4 1.2-.7 2.7-.21 3.98.28-.19.57-.37.81-.62-.05-.98-.18-2.02.4-2.82.5.15.85.64 1.04 1.11.35-.43.46-1.03.33-1.61.02-.45-.5-.35-.75-.54.08-.38.07-.82.48-1.04l-1.25.12c-.32.46-.67.9-.85 1.42zM114.2 43c.05.09 0 .25.1.27.15-.87.86-1.43 1.24-2.2.18-.25.17-.62.47-.81.4 0 .7.29 1.1.32.12.1-.07.17-.08.28-.08.7-.35 1.28-.3 2h.07c.55-.57.92-1.2 1.33-1.86l.07-.59c.09-.7-.68-1.16-1.17-1.44l.44-.57-.62-.22c-.72.07-1.38.37-1.88.94-.63 1.16-.74 2.47-.78 3.87zM116.98 36.85c.24.08.45-.12.69-.02.95.35 1.95.72 2.66 1.51l.85 2.16.43-1.33-.28-.72c-.24-.52-.9-.48-1.34-.5-.19-.2.01-.45.07-.64.22-.74-.68-.7-1.04-1 .02-.44-.52-.28-.82-.33l-.1-.12c-.07-.1-.22-.1-.3-.02-.03-.03-.07-.05-.04-.1l-.23.05c-.32.28-.54.64-.55 1.06zM117.58 34.48c.03.13.11.26.21.35.47-.13.91-.45 1.45-.25.7.6 1.42 1.25 2.26 1.58l.3-.05c.19.06.4.07.52.28.11.28-.17.44-.27.67.47.34.28.95.57 1.36l.75-.99c-.18-.43 0-1.18-.68-1.22a.65.65 0 01-.37-.6c-.44-.4-1-.58-1.44-.99-.36-.3-.58-.74-1.04-.84a3.87 3.87 0 00-1.05-.35c-.7-.1-.76.72-1.21 1.05zM118.57 32.44l.13.2c.51-.04.98-.26 1.49-.25.34.2.79.2 1.14.37.28.38.58.82.99 1.08.84.12 1.3 1.02 1.6 1.68v-.32a2.2 2.2 0 00-.18-1.36c-.21-.21-.51-.35-.73-.53-.04-.14 0-.2.03-.32-.32-.35-.8-.53-1.19-.8-.55-.8-1.6-.58-2.44-.8l-.84 1.05zM118.55 24.85c.1.32.2.73.27 1.07.29-.65.86-.93 1.37-1.46-.3-.2-.65-.3-.97-.35v-.02c-.23.22-.58.45-.67.76zM120.44 28.25l.46-.47c.47-.48.85-1.03.92-1.64-.33-.2-.76-.06-1.08.05-.12.68-.3 1.34-.3 2.06zM120.78 29.71c.71.04 1.4.19 1.99-.21l.57-1.87c-.18 0-.37-.09-.54-.03a4.52 4.52 0 01-2.02 2.11zM120.99 23.11a4.14 4.14 0 002.04 1.67c-.1-.87-.84-1.47-1.23-2.21l-.02-.25c-.3-.3-.66-.49-.97-.65-.05.5.08.98.18 1.44zM123.51 29.8c.55.09 1.14 0 1.65-.16.73-.18 1.14-.98 1.38-1.61h-.92l-1 .97c-.38.2-.76.52-1.1.8zM123.4 22.17c.15.81.5 1.54.96 2.24l.13-1.54-1.1-.7zM126.8 26.2c.05-.52-.16-1.12-.22-1.65-.31-.2-.75-.18-1.07-.39.02.82.66 1.5 1.28 2.04zM125.85 31.45c.65-.2 1.28-.43 1.88-.77.39-.54.97-1.04 1.05-1.68-.48.13-.9-.02-1.34.2-.26.48-.43 1.03-.95 1.38-.08.35-.46.6-.64.87zM126.86 32.72l.78 1.02c.42.13.93.09 1.3-.15l-.29-.92c-.54.2-1.2.15-1.79.05zM128.16 25.4l.3 1.36c.72-.59.87-1.44.85-2.35-.41.47-.66.76-1.15.99zM130.2 27.81a1 1 0 00.18.54c.8.29.88 1.27 1.63 1.64.49.22 1.04-.05 1.47-.25-.32-.36-.68-.6-1-1-.21-.08-.43-.22-.42-.49l-1.86-.44zM130.84 32.7c.35.4.83.6 1.33.71-.09-.11.05 0 .07-.07l-.62-1.36c-.31 0-.64.07-.93.05.02.23.08.45.15.66zM131.94 26.32a7.97 7.97 0 01-.5-2.23c-.3.37-.63.6-.92.99-.13.76.96.95 1.42 1.24zM133.2 25.62c.37.48 1.2.32 1.65.17-.22-.37-.92-.59-1.05-.99a8.91 8.91 0 00-.44-2.06c-.36.88-.8 1.93-.16 2.88zM133.85 27.81c1.04.76 2.05 1.63 3.5 1.31.1-.07.28-.06.3-.2-.42-.26-.88-.47-1.31-.72l-.5-.72h-.23c-.56.19-1.16.26-1.76.33zM133.87 36.2h.08c.62-.5 1.35-.66 2.09-.87.2.07.07.29.25.37.44-.19.98-.14 1.44-.3.55.02 1 .03 1.43.27.36.46 1.02.42 1.48.72l-.08-.72c-.96-1.13-2.46-1.21-3.85-1.19l-.03-.14c-.33 0-.7.07-1.01.21-.45.02-.87.24-1.3.38-.2.39-.35.86-.5 1.27zM134.7 23.49c.4.53 1 .93 1.7.8-.36-.35-.76-.71-.78-1.2.1-.92-.91-.99-1.41-1.47.16.63.14 1.32.5 1.87zM134.6 38.03h.12c.55-.34 1.35-.08 1.89-.45.3-.15.32.26.53.37.5.32.56 1.24 1.28 1.03.86.44.64 1.49.67 2.25l.8-.5c-.07-.4.15-.88-.1-1.23-.2-.45-.74-.49-1-.85.31-.53-.4-.78-.54-1.16l.04-.05 1.1.14c.38.23.5.64.62 1.03.86.14 1.07 1.11 1.37 1.73.18-.42.25-.88.43-1.29 0-.34-.45-.34-.68-.5a1.86 1.86 0 00-.76-1.34c-.96-.24-1.8-.76-2.84-.76l-.87.27c-.48.1-.98-.04-1.35.3-.54.03-.58.63-.71 1zM135.15 33.77l.2.09c.42-.2.84-.42 1.29-.6.7-.19 1.23.6 1.81.1.22-.15.4.08.57.2.25.46.83.42 1.26.55-.21-.6-.48-1.4-1.24-1.5-.3-.13-.65-.11-.94-.3-.8-.87-1.32.73-2.19.34-.3.34-.69.66-.76 1.12z"/><path fill="#fff" d="M135.34 38.8c.34.28.68.76 1.2.7.64.3.37 1.14.72 1.59l.37-.33-.03-.02.05-.06.03.04c.1-.32-.05-.86-.22-1.23-.24-.16-.52.02-.75-.14-.03-.33-.24-.5-.47-.7-.17-.13-.39.04-.57.03l-.33.12zM136.64 26.2c.34.57 1 .92 1.53 1.3.43.2 1 .26 1.47.15a9.43 9.43 0 01-1.22-1.2c-.14-.21-.18-.47-.37-.66-.5.1-1.04.09-1.41.4zM137.21 22.5c.48.58 1.21.35 1.88.37v-.07l-1.03-.88c-.3.1-.6.36-.85.57zM118.15 12.74l.6 1.86c-.01-1.05.48-1.93.37-3l.45-.67-.94.29c-.25.48-.46.95-.48 1.52zM118.55 9.51l.82-.47V7.83c-.34.2-.53.56-.8.84l-.02.84z"/><path fill="#fff" d="M135.35 11.4c-.2.26-.5.32-.75.37.44-.8.64-1.9.3-2.8.23-.09.48-.13.7-.25l-.03-.02.57-.5c.76-.52.47-1.5.75-2.23-.37-.58-.49-1.29-1.03-1.77l.04-.02c-.43-.54-1.2-.48-1.78-.75-.76-.26-1.35.27-1.9.62-.24.04-.1.35-.35.34-.15.39-.32.8-.43 1.22a4.14 4.14 0 00-2.95.55c-.43-.32-.96-.38-1.47-.52-.37-.08-.8.06-1.06-.15-.4-.44-.48-1.25-1.16-1.36-.23-.09-.28-.34-.28-.57-.45-.08-.84-.28-1.28-.38-.66-.3-1.19.18-1.68.5-.22.1-.47.12-.68.25a9.47 9.47 0 00-.96 1.8c.07.53.3 1 .57 1.45.24.67.98 1.2 1.62 1.47a6.09 6.09 0 000 3.27s-.02.02-.02.01c0 0-.04.03-.04.03-.1 0-.2.02-.28-.03h-.02a4.5 4.5 0 001.37 2.6c.27.1.2.41.32.62.07.1.08.29.05.37a8.13 8.13 0 00-4.35 1.09c-.33.16-.18.62-.21.94.9-.6 1.9-1.05 2.98-1.24.46-.03 1-.15 1.44-.02l.05.89c-1.23.64-2.58 1.01-3.64 2.07.03.31-.04.69.06.96l.94-.77c.91-.69 1.86-1.28 2.9-1.66.29.33.58.68.95.89.63-.4 1.32-.7 2.04-.9.39-.22 1-.01 1.24-.47l.18-.94c-.03-.02-.05-.06-.1-.05-.49-.28-.81-.76-.77-1.33a1.4 1.4 0 01-.55.14c-.16-.04-.32-.08-.4-.25 0-.2-.1-.52.1-.67.67-.41 1.54-.44 2.4-.37.62.08 1.54.05 1.75.8-.03.21 0 .45-.22.6-.23.12-.49-.02-.7-.1-.16.5-.44 1.07-1.01 1.23l.07.6c.07.27.1.72.52.62.98.24 1.85.75 2.71 1.3.29-.3.52-.63.72-.93 1.54.52 2.86 1.67 4.12 2.73l.06-.86a14.17 14.17 0 00-3.93-2.41c.06-.28.12-.55.13-.85 1.64.09 3.2.6 4.56 1.4l-.02-.75c-1.43-.76-3-1.27-4.7-1.3a.52.52 0 01-.07-.31c.83-.14 1.42-1 1.62-1.74.42-.49 1.03-1.02.89-1.74.01-.06.04-.12.06-.18.05-.19.1-.37.04-.54z"/><path fill="#fff" d="M136.79 14.05l.85-.26.09-.48c.24-.7-.27-1.21-.52-1.76l-.42 2.5zM138.93 17.33c.4.45.8 1.16 1.51.94-.05-.3-.22-.54-.32-.81-.19-.22-.25-.84-.62-.62-.28-.19-.35-.5-.53-.75-.08.38-.03.86-.04 1.24zM139.07 20.36c.16.22.2.5.35.7.28.18.7.15 1.04.12.31-.07.5.27.8.07-.36-.23-.58-.64-.92-.94-.4-.32-.84-.04-1.27.05zM139.62 25.17c.72.43 1.63.84 2.58.7.1-.06.28-.05.3-.17-.6-.2-1.21-.8-1.83-.92-.34-.53-.79.13-1.22.1 0 .12.13.21.17.3zM141.77 34.3l.16.34c.16 1.07.84 2.06.46 3.24.32.22.41.58.6.87h.06c.24-.9.07-1.83-.05-2.73.09-.82-.74-1.3-1.23-1.72zM141.95 23.71c.54.42 1.4.46 2.02.25-.4-.21-.83-.45-1.15-.74l-.87.5zM144.5 26.89c-.05.43.24.8.56 1.01.1-.26.3-.47.32-.76-.1-.45-.35-.85-.75-1.15-.07.29-.15.57-.12.9zM144.54 31.6c-.07.49.46.55.7.82.18.23-.13.38-.13.6.39.5.62 1.09.62 1.76.15-.63.4-1.23.48-1.88-.04-.46-.77-.36-.66-.87.21-.52-.04-1.03-.17-1.49-.04-.07-.14-.22-.22-.18-.19.43-.65.73-.62 1.24zM145.96 29.14l.53 1.05c.24-.03.4-.26.58-.42.15-.44-.23-.72-.35-1.07-.1-.25 0-.58-.17-.8-.14-.08-.3-.21-.45-.18l-.14 1.42zM146.65 26.4a3 3 0 011.14 1.08c.36 1.05.94 2 1.36 3.03.16.71.28 1.35.48 2.05.07.19.03.55.32.52.08-.79.24-1.54.25-2.36-.26-.34-.6-.49-.92-.7v-.06c.04-.18.19-.39.4-.36.1-.1.38-.2.25-.39-.54-.54-.5-1.46-1.37-1.63-.3-.12-.37-.43-.4-.72-.4-.34-1-.46-1.51-.47zM147.15 32c.52.48.34 1.19.3 1.84-.09.4.41.16.57.37.32.48.13 1.17.02 1.69.28-.43.6-.8.81-1.26 0-.18.22-.26.21-.48.1-.3-.26-.17-.4-.2-.13-.03-.26-.11-.22-.28.27-.52.02-1.14-.08-1.65-.13-.43.05-1-.15-1.37-.33.46-1.31.56-1.06 1.34zM148.1 24.65c.93.94 1.6 1.87 2.6 2.77.02-.4-.03-.77-.05-1.17-.15-.28-.42-.48-.65-.69-.73-.07-1.11-1.06-1.9-.9zM150.52 29.58c.02.1.06.18.1.27.4.67.8 1.35 1.07 2.06-.08-.76.44-1.72-.25-2.3-.09-.25-.4-.17-.6-.15l-.32.12zM153 37.14c.3.13.67-.1.95-.27.26-.06.48.08.67.22.08.16 0 .32.03.47.62.18 1.23.4 1.78.77l.18-.18c.04-.44-.31-.76-.64-1.01-.22-.13-.54-.05-.7-.25.1-.17.1-.41.1-.6-.35 0-.56-.1-.84-.27-.18-.05-.33-.2-.48 0-.52.35-.55.87-1.04 1.12zM153.73 24.12c.26-.07.53-.14.75-.33.69-.63 1.7-.2 2.5-.21a5.58 5.58 0 00-.57-.8c-.29-.12-.56-.25-.89-.25-.7-.41-1.18.28-1.72.62-.14.28-.21.7-.07.97zM153.75 26.25c0-.03 0-.06.03-.07.1.08 0 .28.15.32.27-.13.52-.32.76-.5.7 0 1.11-.67 1.8-.67 1.13.21 2.26.44 3.25 1-.07-.68-.65-1.29-1.24-1.59-.33-.11-.59.07-.83.25-.69.44-.33-.63-.81-.65-.63.2-1.29.41-1.99.35-.41.16-.7.54-1.17.5-.02.34-.07.75.05 1.06zM154.23 28.56c.21.23.58.19.89.23l.9-.35c.01-.17-.27-.21-.2-.4.24-.28.58-.08.9-.2.43-.06.87-.49 1.3-.17 0 .05.03.13-.01.18-.14.32.09.51.34.64.5.1.98.56 1.49.35-.05-.43-.17-.82-.27-1.22-.42-.08-.72-.43-1.12-.57-.18.16-.4.29-.62.27-.8-.19-1.75-.68-2.56-.18-.29.35-.8.25-1.2.4.02.36.06.7.16 1.02zM154.57 34.7c-.06.18-.24.47.08.56.67.02 1.51-.32 2.03.2.18.13.1.4.08.58l.87.73c.09-.44.24-.83.25-1.3a1.45 1.45 0 00-.52-.87c-.58 0-.9-.66-1.52-.58-.32-.07-.6.21-.92.21-.14.15-.23.32-.35.48zM154.82 29.83c.13.28.29.74.55.77.6-.27 1.5-.44 2.18-.15.23.04.23.3.18.47.35.2.78.37 1.15.6l-.1-.62c-.03-.68-.88-.74-.93-1.4a4.1 4.1 0 00-2.2-.12c-.24.21-.58.18-.87.25-.02.08.03.13.04.2zM155 33.18c.4-.11.66-.56 1.1-.6.65.02 1.25.28 1.66.85.25.17.2.6.52.6-.1-.52.07-.98.05-1.5-.44-.72-1.51-.16-1.92-1.01l-.76.05c-.55.13-.4.78-.48 1.21-.06.13-.19.24-.17.4zM158.8 37.7c.31.65 1.02 1.13 1.1 1.87.16-.2.27-.42.38-.64 0-.2-.25-.2-.34-.37-.1-.27.05-.51.1-.75a2 2 0 00-.82-.97l-.43.87zM160.07 36.07l.74 1.02c.32-.51.32-1.25.2-1.87-.07-.11-.2-.3-.4-.21-.27.29-.31.73-.54 1.06zM157.03 7.76c.27.14.53.26.85.28.22-.11.5-.2.77-.12.38.25.85-.05 1.3-.03-.4-.37-.85-.6-1.3-.82-.58.12-1.05.54-1.62.7zM161.08 8.74c.55.05.94.53 1.32.94.46.07.82.4 1.1.74l-.18-.55a3.5 3.5 0 00-.82-1.4 4 4 0 00-1.42.27z"/><path fill="#f60" d="M122.45 4.2l.3.03c.8.4 2.1.6 2.18 1.78a6.4 6.4 0 00-2.25 1.41c-.5-.5-1.5-.22-1.67-1.11.15-.84.45-1.9 1.44-2.11zM123.22 9.44c.94-.08 1.86.05 2.83-.03.24.1.49.31.6.55-.03 1.12-.37 2.18-.42 3.33-.43.18-.84.53-.95 1-.38.1-.72.34-1.1.5-.16-.34-.13-.87.16-1.16.4-.57 1.45-.43 1.37-1.33.27-.44 0-1 .02-1.45-.1-.34-.2.11-.37.1-.33.07-.68.1-.97-.07-.21-.23-.48-.41-.55-.73-.29-.14-.63-.37-.77-.67l.15-.04zM124.36 16.19c.44.06.91-.14 1.3.08-.09.14-.3.2-.48.25l-.7.32c-.25-.07-.1-.48-.12-.65zM126.17 7.55c.45-.15.93-.45 1.4-.3-.34.34-.6.79-.87 1.2l-1.41-.03a2 2 0 01.88-.87zM130.33 7.2c.58-.1.55.67 1.1.7.09.13.22.24.17.42-.31.13-.77.07-1.12.15-.47-.26-.16-1.07-.9-1.01-.04-.07-.13-.2-.02-.23.23-.08.53-.05.77-.02zM129.95 9.98c.26-.36.66-.4 1.03-.47l2.68.06c.11.1-.1.2-.1.32-.17.15-.4.2-.55.34-.35.01-.32.42-.57.6-.39.38-.94.2-1.39.14a1.19 1.19 0 01-.4-.44l-.13.12c.16.58.12 1.22.23 1.81l.64.43c.01.95 1.13.69 1.62 1.22a2.9 2.9 0 01-.6.92c-.39-.39-.83-.63-1.3-.8-.05-.56-.66-.89-1-1.17-.1-1.01-.12-2.05-.28-3.03l.12-.05zM130.93 16.36h1.24l-.16.65-1.24-.53c-.03-.1.08-.13.16-.12zM133.16 4.64l.92-.29c.53.25 1.03.56 1.51.91.39.7.32 1.66.15 2.44-.28.31-.9 0-1.12.5h-.04a4.55 4.55 0 00-2.22-2.29c.15-.5.3-.98.8-1.27z"/><path fill="#fff" d="M154.76 44.05h5.52c.82-.13 1.69-.1 2.34-.7 2.76.42 5.57-.27 7.74-1.79 1.15-.92 2.18-2 3.01-3.16.74-1.03 1.32-2 1.7-3.14.27-.72.5-1.46.66-2.22a21.05 21.05 0 00-1.52-12.83c-1.45-3.01-3.44-6.26-6.5-8.16a13.06 13.06 0 01-4.27-4.45c-.53-.48-1.04-1.11-1.72-1.22.19.3.4.6.44.97l-.04.05c-.72.02-1.3-.36-1.79-.83l.55-.5c-.2-.1-.44-.14-.67-.19-2.1-.24-3.81.72-5.66 1.19l-.04.1c1.14.5 1.38 1.76 2.04 2.6.17-.19.45-.04.68-.06.33.02.64.25.96.17 0-.28-.15-.5-.2-.74.2-.1.44-.01.65 0 .6.35 1.57-.07 1.94.74-.68.04-1.33.19-1.97.34.04.26.3.47.28.73a6.5 6.5 0 00-1.74-.45l-.03.1a6 6 0 002.93 1.76c1.57.37 2.94-.38 4.45-.12 3.71 1.7 6.88 5.58 8.26 9.26.06.18.13.35.19.53a17.9 17.9 0 01.22 11 13.5 13.5 0 01-2.38 4.03c-.41.5-.87.96-1.36 1.34a6.09 6.09 0 01-5.44 1.2c-.13-.08-.38-.1-.34-.32.07-.3.14-.58.2-.88.32-1.68.47-3.45.39-5.22 0-.08-.01-.15-.01-.23a19.9 19.9 0 00-1.57-7.09 24.57 24.57 0 00-2.23-3.91 9.25 9.25 0 00-4.15-3.42c-1.05-.27-2.36-.33-3.15.55-.58.5-.81 1.17-.73 1.9-.89.57-1.9.88-2.98.97-.27.02-.54.12-.82.12-.26 0-.52 0-.77-.04a7.62 7.62 0 01-3.65-1.67c-.02-.54-.05-1.04-.07-1.61a1.95 1.95 0 01-1.1-1.54l.06-.06c.33.1.62.27.92.45-.14-.8-.3-1.6-.7-2.3-.37-.16-.74-.28-1.1-.47-.4-.27-.66-.76-.72-1.2.36.35 1 .23 1.28.6-.49-1.44-.5-3.08-1.3-4.4-.4-.97-1.46-1.41-2.18-2.13-.28-.34-.4-.82-.9-.87-.42-.1-.45-.57-.52-.87.26.03.47.21.7.25-.6-1.6-1.14-3.36-2.76-4.37l-.28.17c-.63.1-1.3.14-1.94.16.28-.42.78-.6 1.17-.78a2.8 2.8 0 00-1.4-.52c-.33.34-.93.5-1.35.6l-.05-.05c-.01-.37-.1-.83.46-.92-.54-.26-1.43-.15-1.98 0-.15.4-.6.77-.57 1.24-.32.34-.54.78-.88 1.02 0-.8.33-1.53.48-2.2-.47.17-.94.42-1.4.64-.73-.43-1.5-.85-2.3-1.17-.06-.03-.22-.07-.19.07.67.48.41 1.4.49 2.09l-.43-.35c-.2-.53-.8-.91-.9-1.5a7.9 7.9 0 00-1.81.6l-.1.06c.49 0 .9.38 1.14.76-.73.05-1.38-.24-2.1-.32-.08-.07-.14-.15-.26-.14-.36.13-.67.4-1 .64a6.95 6.95 0 00-1.77 2.41c.24.04.54.03.71.18-.39.24-.73.64-1.11.87-.14.53-.12 1.14-.15 1.73-.3.46-.7.86-.9 1.37-.64 2.08-.8 4.38-.71 6.74-.21.2-.48.32-.68.48l.02 2.1h.06c.1-.44.62-.69.94-.98h.1c-.05.47-.11.95-.12 1.43l-.6.5c-.6.53-.1 1.32-.15 1.98.05.18.07.44.2.48.07-.26.3-.45.44-.67.26-.07.49-.27.73-.3-.13.51-.31 1.02-.52 1.52-.1.06-.22.15-.32.26a.75.75 0 00-.2.38c.46 2.45 1.2 4.87 2.03 7.18-.57.96-.9 2.1-1.37 3.08-.06.14-.12.28-.18.43-.48 1.2-.62 2.55-1.21 3.7a3.12 3.12 0 00-4 .32 2.78 2.78 0 00-2.04.37c-.4.31-.72.68-.9 1.11-.13.3-.18.63-.16.98-.47.32-.72.82-.87 1.32a4.07 4.07 0 00.81 3.14h46.09z"/><path fill="#f60" d="M174.94 22.04c-.22-.64-.46-1.25-.73-1.83-1.45-3.01-3.44-6.26-6.5-8.16a13.06 13.06 0 01-4.27-4.45c-.53-.48-1.04-1.1-1.72-1.22.19.3.4.6.44.97l-.04.05c-.72.02-1.3-.36-1.79-.83l.55-.5c-.2-.1-.44-.14-.67-.19-2.1-.24-3.81.72-5.66 1.2l-.04.1c1.14.5 1.38 1.75 2.04 2.6.17-.2.45-.05.68-.07.33.02.64.25.96.17 0-.28-.15-.5-.2-.74.2-.1.44-.01.65 0 .6.35 1.57-.06 1.94.74-.68.05-1.33.19-1.97.34.04.26.3.47.28.73a6.5 6.5 0 00-1.74-.45l-.03.1a6 6 0 002.93 1.77c1.57.36 2.94-.39 4.45-.13 3.71 1.7 6.88 5.58 8.26 9.26.06.18.13.36.19.54a17.9 17.9 0 01.22 11 13.5 13.5 0 01-2.38 4.02c-.41.5-.87.96-1.36 1.34a6.09 6.09 0 01-5.44 1.2c-.13-.08-.38-.1-.34-.32.07-.29.14-.58.2-.88.32-1.68.47-3.45.39-5.22 0-.07-.01-.15-.01-.23a19.9 19.9 0 00-1.57-7.09 24.57 24.57 0 00-2.23-3.91 9.25 9.25 0 00-4.15-3.41c-1.05-.28-2.36-.33-3.15.55-.58.5-.81 1.16-.73 1.9-.89.56-1.9.87-2.98.96-.27.02-.54.12-.82.12-.26.01-.52 0-.77-.03a7.62 7.62 0 01-3.65-1.68c-.02-.53-.05-1.04-.07-1.61a1.95 1.95 0 01-1.1-1.54l.06-.05c.33.1.62.26.92.44-.14-.8-.3-1.6-.7-2.3-.37-.16-.74-.28-1.1-.47-.4-.27-.66-.76-.72-1.2.36.35 1 .23 1.28.6-.49-1.44-.5-3.08-1.3-4.4-.4-.97-1.46-1.41-2.18-2.13-.28-.34-.4-.81-.9-.87-.42-.1-.45-.57-.52-.86.26.03.47.2.7.24-.6-1.6-1.14-3.36-2.76-4.37l-.28.17c-.63.1-1.3.14-1.94.16.28-.41.78-.59 1.17-.78a2.8 2.8 0 00-1.4-.51c-.33.33-.93.5-1.35.58l-.05-.04c-.01-.37-.1-.82.46-.92-.54-.25-1.43-.15-1.98 0-.15.4-.6.77-.57 1.24-.32.34-.54.78-.88 1.02 0-.8.33-1.53.48-2.2-.47.17-.94.42-1.4.64-.73-.43-1.5-.85-2.3-1.17-.06-.03-.22-.06-.19.07.67.49.41 1.4.49 2.09l-.43-.35c-.2-.53-.8-.91-.9-1.5a7.9 7.9 0 00-1.81.6l-.1.06c.49 0 .9.38 1.14.76-.73.05-1.38-.24-2.1-.31-.08-.08-.14-.16-.26-.15-.36.14-.67.4-1 .64a6.95 6.95 0 00-1.77 2.41c.24.04.54.03.71.18-.39.24-.73.64-1.11.87-.14.54-.12 1.15-.15 1.74-.3.45-.7.85-.9 1.36-.64 2.08-.8 4.38-.71 6.74-.21.2-.48.33-.68.48l.02 2.1h.06c.1-.44.62-.68.94-.98h.1c-.05.47-.11.95-.12 1.43l-.6.5c-.6.53-.1 1.32-.15 1.98.05.18.07.44.2.48.07-.26.3-.44.44-.67.26-.06.49-.27.73-.3-.13.51-.31 1.02-.52 1.52-.1.06-.22.15-.32.26a.75.75 0 00-.2.38c.46 2.45 1.2 4.87 2.03 7.18-.57.96-.9 2.1-1.37 3.09-.06.14-.12.28-.18.42-.48 1.2-.62 2.55-1.21 3.7a3.12 3.12 0 00-4 .32 2.78 2.78 0 00-2.04.37c-.4.31-.72.68-.9 1.11-.13.3-.18.63-.16.98-.47.33-.72.82-.87 1.32a4.07 4.07 0 00.81 3.14h18.3a5.96 5.96 0 01-.7-1.15c-.4-.6-.13-1.43-.17-2.11a39.08 39.08 0 011.43-2.68l.84-.32c.45 0 .82-.32 1.25-.2.57.56.57-.58 1.12-.63 1.28-.16 2.55-.04 3.28 1.05 0 .14.23.14.17.28-.16.05-.32-.06-.5-.06-.78-.2-1.7-.7-2.48-.25-.03.19-.07.38-.1.56-.04.2-.08.4-.1.58.51.15.93.5 1.32.9.26-.5.8-.73 1.3-.9.42.1.88.1 1.24.37.65.6.33 1.63.27 2.4.58.32 1.24.51 1.84.83-.28.25-.65.35-1 .48L135 43c-.11-.08-.31-.08-.35-.23a5.2 5.2 0 00-.94 1.27h14.18c-.19-.42-.4-.75-.66-1.14-.3-.62-.18-1.47-.21-2.13l1.32-2.02c.73-.01 1.55-.28 2.33-.15a.86.86 0 00.12-.06c.32-.22.42-.75.9-.68.88-.24 1.54.16 2.2.55-.03.05-.05.1-.07.13-.28.44-.79-.05-1.16.08-.16.17.07.36.1.55.14.19-.13.17-.22.2a.71.71 0 01-.63-.2c-.04-.05 0-.11-.09-.12-.19.3-.45.59-.53.94.24.23.56.45.68.75.23.34-.19.6-.27.9-.03.06-.13.06-.16 0-.22-.13-.4-.44-.64-.36-.2.92.07 1.84-.05 2.76.4.1.88-.02 1.31 0l.18-1.94a6.36 6.36 0 011.81-3.28c.95-.65 1.56.63 2.27 1.08.11.02.07.14.12.21-.01.21-.23.3-.37.36-.44.15-.76-.33-1.03-.6-.26.27-.37.65-.67.86l.1.03c.35.35.68.7.75 1.16a1.3 1.3 0 01-.62 1.03c-.28-.48-.5-1-.7-1.5.02.03 0 .04-.03.06-.57.15-.72.8-.81 1.31.03.51-.35.72-.25 1.22h7.38c.82-.12 1.69-.1 2.34-.7 2.76.42 5.57-.26 7.74-1.78 1.15-.93 2.18-2 3.01-3.16.74-1.03 1.32-2 1.7-3.15.27-.71.5-1.45.66-2.21.79-3.58.38-7.59-.8-11z"/><path fill="#f60" d="M127.43 41.23c.4-.25 1.06-.32 1.15-.92-.17-.12-.31-.28-.5-.32l-.42.13c.03-.25.16-.53.25-.8l1.36-.44c-.19.62-.26 1.4-.32 2.1.12 1.06.28 2.19.82 3.07h-1.47c-.17-.98-1.18-1.68-.87-2.82zM130.6 40h.09l1 .9.14-.04a47.44 47.44 0 00-.15 3.19h-1.07c-.22-1.03-.58-2.1-.54-3.2.18-.29.3-.64.54-.86zM132.82 40.99c.2-.26.28-.7.67-.75.28.01.54.05.75.25.36.45.01 1.04-.12 1.49-.15.7-.4 1.42-.62 2.07h-1.05l.37-3.06zM148.53 40.66c.23.3.3.69.64.95.3-.42.37-1.06.23-1.59l-.3-.3c.38-.09.78-.12 1.17-.2-.17.56-.48 1.05-.43 1.7.01.92.17 1.86.25 2.83h-1.14c-.41-.91-.83-1.78-.8-2.84.13-.18.21-.4.38-.55z"/><path fill="#fff" d="M153.43 20.8c-.02.26-.21.56-.04.8.25-.29.67-.28 1-.4.92-.09 1.8.2 2.66.41-.22-.34-.36-.72-.6-1.03-.48-.13-1.2.2-1.29-.5-.29-.25-.74-.07-1.04-.05-.3.2-.53.46-.7.76zM121.78 11.86s0 0-.01 0h.01zM125.55 21.06l.62-.6c.05 0 .1 0 .12.05l-.05 1.15c.3.28.67.37 1.07.39.03-.31.27-.53.4-.8.12-.21.04-.53.27-.69l.07.07c.07.35.05.73.23 1.03.02.16.05.37.07.51.46.02.87-.1 1.22-.27-.02-.39.12-.7.18-1.07.1-.12-.12-.35.14-.34.15.3.4.63.55.96.6-.61.85-1.4 1-2.23-.18-.24-.45-.24-.66-.4-1.76-.56-4.01-.68-5.71.2-.11.7.03 1.48.48 2.04zM109.1 40.46c-.07.8 0 1.55.04 2.34.17.25.47.55.77.57l.05-.52c.13-.74-.27-1.52.15-2.14a5 5 0 01.83.37c.12-.68-.06-1.48-.7-1.9l-1.15 1.28zM111.65 39.35c-.4 1.2-.7 2.7-.22 3.97.28-.18.57-.36.82-.62-.05-.97-.19-2 .4-2.82.5.16.84.65 1.04 1.12a1.9 1.9 0 00.32-1.61c.02-.46-.5-.35-.74-.54.08-.38.07-.83.47-1.04l-1.24.12c-.32.46-.67.9-.85 1.42zM114.2 42.92c.06.1 0 .26.11.28.16-.87.86-1.43 1.25-2.2.18-.25.17-.62.47-.81.4 0 .7.28 1.09.32.12.09-.07.17-.08.28-.08.7-.35 1.28-.3 2h.08c.55-.57.92-1.2 1.32-1.86l.07-.59c.1-.7-.67-1.16-1.17-1.45l.45-.57-.62-.21c-.73.07-1.38.37-1.89.94-.63 1.15-.73 2.46-.77 3.87zM117 36.78c.23.07.45-.12.68-.02.96.35 1.95.71 2.67 1.51l.85 2.16.42-1.33-.28-.73c-.24-.51-.89-.47-1.34-.5-.18-.2.01-.44.08-.63.21-.74-.69-.7-1.05-1 .02-.44-.52-.29-.82-.33l-.1-.12c-.06-.1-.22-.1-.3-.02-.02-.03-.06-.05-.04-.1l-.23.05c-.32.28-.54.64-.55 1.06zM117.6 34.4c.02.14.1.27.2.35.48-.12.92-.44 1.46-.24.7.6 1.42 1.25 2.26 1.58l.3-.05c.18.06.39.07.51.28.12.28-.17.44-.26.67.46.34.28.95.57 1.36l.74-.99c-.17-.44.01-1.18-.67-1.22a.65.65 0 01-.38-.6c-.44-.4-.99-.58-1.43-1-.37-.28-.58-.73-1.05-.83a3.8 3.8 0 00-1.04-.35c-.7-.1-.76.72-1.22 1.04zM118.59 32.37l.12.2c.52-.04.98-.26 1.5-.26.33.21.78.2 1.13.38.28.38.58.81 1 1.07.83.12 1.3 1.03 1.59 1.69v-.32c.12-.45-.01-.97-.18-1.37-.2-.2-.5-.34-.72-.52-.04-.14-.01-.2.03-.33-.32-.34-.8-.52-1.2-.8-.54-.79-1.6-.57-2.44-.79l-.83 1.05zM118.57 24.78c.1.32.2.72.27 1.07.29-.65.86-.94 1.36-1.46-.29-.2-.65-.3-.97-.35v-.02c-.23.22-.58.45-.66.76zM120.45 28.18l.47-.47c.46-.48.85-1.03.92-1.64-.33-.2-.77-.06-1.09.05-.11.67-.29 1.34-.3 2.06zM120.8 29.64c.7.04 1.4.19 1.98-.22l.58-1.86c-.19-.01-.37-.1-.55-.03a4.54 4.54 0 01-2.02 2.11zM121 23.04a4.18 4.18 0 002.04 1.67c-.1-.87-.84-1.47-1.22-2.22l-.02-.24a3.8 3.8 0 00-.98-.65c-.05.5.09.98.18 1.44zM123.53 29.72c.54.1 1.13 0 1.64-.15.74-.18 1.14-.99 1.39-1.62h-.92l-1 .98c-.39.2-.76.51-1.11.8zM123.41 22.1c.16.8.5 1.54.97 2.24l.12-1.55-1.09-.69zM126.8 26.12c.07-.51-.15-1.11-.2-1.64-.32-.2-.75-.19-1.07-.4.02.82.66 1.52 1.28 2.04zM125.87 31.38c.65-.2 1.28-.44 1.88-.77.38-.55.96-1.04 1.05-1.68-.48.13-.9-.02-1.34.2-.27.48-.44 1.03-.95 1.38-.09.35-.47.59-.64.87zM126.88 32.65l.78 1.01c.41.14.93.1 1.29-.14l-.28-.92c-.55.2-1.2.14-1.8.05zM128.17 25.33l.3 1.36c.73-.59.88-1.44.86-2.35-.42.47-.66.76-1.16.99zM130.21 27.74c.01.2.07.38.18.53.8.3.89 1.28 1.64 1.65.48.22 1.04-.05 1.46-.25-.32-.36-.68-.61-.99-1-.22-.09-.44-.22-.42-.49l-1.87-.44zM130.86 32.62c.35.4.82.61 1.32.72-.08-.11.05 0 .07-.07l-.62-1.37c-.31.02-.63.08-.92.06.02.23.07.45.15.66zM131.95 26.25a8.1 8.1 0 01-.5-2.23c-.3.37-.62.6-.91.99-.14.76.96.95 1.41 1.24zM133.21 25.54c.38.5 1.2.33 1.65.18-.22-.37-.92-.6-1.04-1a8.8 8.8 0 00-.45-2.05c-.36.88-.8 1.92-.16 2.87zM133.87 27.74c1.03.75 2.05 1.63 3.5 1.3.1-.06.28-.05.3-.19-.43-.27-.88-.47-1.32-.72l-.5-.72h-.22c-.56.18-1.16.26-1.76.33zM133.89 36.12h.07c.62-.5 1.36-.66 2.1-.86.2.07.07.29.24.37.45-.19.99-.15 1.44-.3.55.02 1 .03 1.44.27.35.46 1.01.4 1.47.72l-.07-.72c-.96-1.13-2.47-1.21-3.85-1.2l-.03-.14c-.33 0-.7.07-1.02.22-.44.02-.87.24-1.3.37-.19.4-.35.87-.5 1.27zM134.72 23.41c.4.53 1 .94 1.69.8-.35-.34-.76-.7-.78-1.19.1-.92-.9-1-1.4-1.47.16.62.14 1.32.5 1.86zM134.61 37.95h.13c.55-.34 1.34-.08 1.88-.44.3-.16.32.26.53.37.5.31.57 1.24 1.28 1.03.86.44.65 1.49.68 2.25l.8-.5c-.08-.4.15-.88-.1-1.24-.2-.44-.75-.48-1-.84.3-.53-.4-.78-.54-1.16l.04-.05 1.1.14c.37.23.5.64.62 1.03.86.14 1.06 1.11 1.36 1.73.18-.42.25-.88.43-1.3.01-.33-.45-.33-.67-.49a1.83 1.83 0 00-.77-1.34c-.95-.24-1.79-.77-2.83-.77l-.87.27c-.48.12-.99-.03-1.35.3-.54.04-.58.63-.72 1.01zM135.16 33.7l.2.09c.42-.2.85-.43 1.3-.6.69-.19 1.22.6 1.8.1.22-.15.41.07.57.2.26.45.83.42 1.27.54-.22-.58-.49-1.4-1.24-1.48-.3-.14-.66-.13-.95-.3-.8-.88-1.31.72-2.18.33-.31.34-.7.66-.77 1.11z"/><path fill="#fff" d="M135.36 38.73c.33.28.67.76 1.2.7.63.3.36 1.14.71 1.59l.38-.33-.03-.03.05-.05.02.03c.1-.3-.04-.85-.22-1.22-.24-.16-.51.01-.74-.14-.03-.34-.24-.5-.48-.7-.17-.13-.38.03-.57.02l-.32.13zM136.65 26.12c.35.57 1 .92 1.54 1.32.43.2 1 .25 1.47.14a9.49 9.49 0 01-1.22-1.2c-.15-.22-.18-.48-.38-.66-.48.1-1.03.08-1.4.4zM137.23 22.42c.47.6 1.2.35 1.88.38v-.08l-1.04-.87c-.29.1-.6.35-.84.57zM118.17 12.67l.6 1.86c-.02-1.05.47-1.94.37-3l.44-.67-.94.29a3.5 3.5 0 00-.47 1.52zM118.57 9.44l.82-.47V7.76c-.35.2-.53.56-.8.83l-.02.85z"/><path fill="#fff" d="M135.36 11.32c-.2.26-.5.33-.74.38.43-.8.64-1.9.3-2.8.22-.09.47-.13.69-.25l-.02-.03.57-.5c.75-.51.46-1.5.74-2.23-.37-.57-.48-1.28-1.02-1.76l.03-.03c-.42-.53-1.2-.47-1.77-.74-.77-.26-1.36.27-1.9.62-.25.04-.1.35-.36.34-.14.38-.32.8-.42 1.22a4.14 4.14 0 00-2.95.55c-.44-.32-.97-.38-1.47-.53-.38-.07-.8.06-1.07-.14-.4-.45-.48-1.25-1.15-1.37-.24-.08-.29-.34-.29-.57-.44-.07-.84-.28-1.27-.37-.66-.3-1.2.18-1.69.5-.22.09-.47.12-.67.24a9.78 9.78 0 00-.97 1.81c.08.53.3 1 .57 1.44.24.67.99 1.2 1.62 1.47a6.08 6.08 0 000 3.28s-.02.01-.02.01-.03.03-.03.03c-.1 0-.2.02-.29-.03h-.01c.15.99.61 1.85 1.36 2.6.27.09.21.41.32.62.08.09.09.29.06.37a8.14 8.14 0 00-4.35 1.08c-.33.17-.19.62-.22.95.91-.6 1.9-1.05 2.98-1.25.47-.02 1-.14 1.44-.02l.05.9c-1.23.64-2.58 1-3.63 2.06.02.32-.04.7.05.96l.94-.76c.92-.7 1.87-1.28 2.91-1.67.28.33.57.69.95.9.63-.41 1.31-.71 2.04-.9.38-.22.99-.02 1.24-.47l.17-.94c-.03-.02-.05-.07-.1-.06-.49-.28-.8-.76-.77-1.33-.16.08-.35.14-.54.14-.17-.04-.33-.08-.4-.24 0-.21-.11-.52.1-.67.67-.42 1.54-.44 2.39-.38.63.09 1.54.05 1.76.8-.03.22-.01.46-.23.6-.23.12-.49-.01-.7-.1-.16.5-.44 1.07-1 1.24l.06.6c.07.26.1.7.52.61.98.24 1.86.75 2.71 1.3.3-.29.52-.62.73-.92 1.53.52 2.86 1.66 4.12 2.73l.05-.87a14.1 14.1 0 00-3.92-2.4c.05-.29.11-.56.12-.86 1.65.1 3.21.6 4.57 1.4l-.02-.75c-1.43-.76-3-1.27-4.7-1.29a.5.5 0 01-.08-.32c.83-.13 1.42-.99 1.62-1.74.42-.48 1.04-1.01.89-1.73.02-.06.04-.13.06-.19.06-.18.1-.37.04-.54z"/><path fill="#fff" d="M136.8 13.98l.85-.27.1-.47c.23-.7-.28-1.21-.52-1.76l-.43 2.5zM138.94 17.26c.4.45.8 1.16 1.52.94-.06-.3-.22-.55-.33-.82-.18-.21-.25-.83-.62-.62-.28-.18-.35-.5-.53-.74-.08.38-.03.86-.04 1.24zM139.09 20.29c.15.22.2.5.35.7.28.18.7.15 1.04.12.3-.08.5.27.8.07-.37-.23-.59-.64-.93-.94-.4-.32-.84-.04-1.26.05zM139.64 25.1a4 4 0 002.57.7c.1-.06.28-.05.3-.17-.59-.2-1.2-.8-1.83-.92-.34-.53-.78.13-1.22.1.01.11.13.2.18.29zM141.79 34.23l.15.33c.16 1.08.84 2.07.47 3.25.31.22.4.58.6.87h.05c.24-.9.07-1.83-.05-2.73.1-.82-.74-1.3-1.22-1.72zM141.97 23.64c.53.42 1.4.46 2.01.25-.39-.22-.82-.46-1.14-.74l-.87.5zM144.52 26.82c-.05.43.24.8.55 1.01.11-.26.3-.48.32-.76a1.9 1.9 0 00-.74-1.15c-.08.29-.16.57-.13.9zM144.55 31.53c-.07.49.47.55.7.82.18.23-.13.38-.13.6.4.5.62 1.08.62 1.76.16-.63.4-1.23.48-1.88-.04-.46-.77-.37-.65-.87.2-.52-.04-1.03-.18-1.5-.04-.06-.13-.21-.22-.17-.18.43-.65.73-.62 1.24zM145.97 29.07l.54 1.05c.24-.04.4-.26.58-.43.14-.43-.24-.71-.35-1.07-.1-.24 0-.57-.18-.79-.13-.08-.29-.22-.44-.18l-.15 1.42zM146.66 26.32c.43.26.91.63 1.14 1.09.37 1.05.94 2 1.37 3.02.15.72.28 1.36.47 2.06.08.18.04.55.33.52.08-.8.23-1.55.25-2.36-.26-.34-.6-.49-.93-.7v-.07c.05-.17.2-.38.4-.35.1-.1.38-.2.26-.4-.54-.53-.51-1.45-1.37-1.62-.3-.12-.37-.44-.4-.72-.4-.35-1-.46-1.52-.47zM147.16 31.93c.53.48.34 1.18.3 1.84-.08.39.42.16.57.37.32.47.14 1.17.02 1.68.28-.42.6-.8.82-1.26 0-.17.22-.26.2-.48.1-.3-.25-.16-.4-.2-.12-.02-.25-.1-.21-.27.27-.52.02-1.14-.09-1.65-.12-.43.06-1-.14-1.37-.33.46-1.32.56-1.07 1.34zM148.12 24.58c.93.93 1.6 1.87 2.6 2.77.01-.4-.04-.78-.06-1.17-.14-.28-.41-.48-.64-.7-.74-.06-1.12-1.05-1.9-.9zM150.53 29.51c.03.1.07.18.11.27.4.66.79 1.35 1.07 2.06-.09-.77.43-1.72-.25-2.3-.1-.26-.4-.17-.6-.15l-.33.12zM153.02 37.07c.3.13.66-.1.94-.27.26-.07.48.08.68.21.08.17 0 .32.03.48.62.18 1.23.4 1.78.77l.17-.18c.04-.44-.3-.77-.64-1.01-.22-.13-.54-.06-.7-.25.11-.17.11-.42.1-.6-.34 0-.56-.1-.84-.27-.17-.05-.33-.2-.47 0-.52.35-.55.87-1.05 1.12zM153.75 24.05c.26-.07.53-.14.74-.33.7-.63 1.7-.2 2.5-.22a5.65 5.65 0 00-.56-.8c-.3-.1-.56-.24-.9-.24-.7-.42-1.17.28-1.71.62-.15.28-.22.7-.07.97zM153.77 26.18c0-.03 0-.06.03-.07.1.08-.01.28.14.32.27-.14.52-.32.77-.5.7 0 1.1-.67 1.79-.67 1.14.2 2.27.44 3.26 1-.07-.68-.65-1.29-1.24-1.59-.34-.11-.6.06-.83.25-.7.44-.33-.63-.82-.65-.63.2-1.28.41-1.99.35-.41.16-.7.54-1.17.5-.02.34-.07.75.06 1.06zM154.24 28.49c.22.23.58.18.9.23l.9-.36c0-.16-.27-.2-.21-.39.25-.28.59-.08.9-.2.43-.06.88-.49 1.31-.17-.01.05.02.12-.02.17-.13.33.1.52.34.65.51.09.98.55 1.5.35-.06-.43-.17-.82-.28-1.22-.42-.08-.72-.43-1.11-.57-.18.16-.4.29-.63.27-.8-.2-1.75-.69-2.55-.18-.3.35-.81.25-1.2.4.02.35.06.7.15 1.02zM154.58 34.64c-.06.17-.23.46.09.54.66.02 1.51-.32 2.03.2.17.13.09.41.08.59l.87.72c.08-.43.24-.83.25-1.3a1.45 1.45 0 00-.53-.86c-.57 0-.9-.67-1.51-.58-.32-.07-.6.21-.92.21-.15.14-.23.32-.36.48zM154.83 29.76c.14.28.3.73.55.76.61-.26 1.5-.43 2.19-.14.22.04.22.3.17.46.35.21.78.38 1.15.6l-.1-.62c-.02-.67-.87-.73-.92-1.4-.7-.22-1.47-.3-2.2-.12-.25.22-.59.2-.88.25-.02.08.03.14.04.2zM155 33.11c.41-.11.67-.56 1.1-.6.67.01 1.26.28 1.67.85.25.16.2.59.52.59-.1-.5.07-.97.05-1.5-.43-.71-1.5-.16-1.91-1l-.77.05c-.55.13-.4.77-.47 1.2-.07.14-.19.25-.18.41zM158.81 37.63c.32.65 1.03 1.13 1.1 1.87.16-.2.28-.43.39-.65-.01-.2-.25-.2-.34-.37-.1-.27.05-.5.09-.74a2.03 2.03 0 00-.82-.98l-.42.87zM160.08 36l.75 1.01c.32-.5.32-1.25.2-1.86-.08-.11-.21-.3-.4-.21-.28.28-.32.73-.55 1.06zM157.05 7.7c.27.13.53.25.85.27.22-.11.5-.2.76-.12.39.25.85-.05 1.3-.03a4.8 4.8 0 00-1.3-.82c-.58.12-1.04.54-1.61.7zM161.1 8.66c.55.05.94.54 1.31.94.47.07.82.4 1.1.75l-.18-.55c-.12-.55-.46-.97-.82-1.4-.5.02-.98.07-1.41.26z"/><path fill="#f60" d="M122.46 4.13l.3.03c.8.4 2.11.6 2.19 1.78-.82.32-1.6.75-2.26 1.41-.5-.5-1.5-.22-1.67-1.11.16-.84.46-1.9 1.44-2.11zM123.24 9.37c.94-.08 1.85.05 2.83-.03.23.1.48.3.6.55-.04 1.11-.38 2.18-.43 3.33-.42.17-.84.53-.94.99-.38.11-.73.34-1.1.52-.16-.35-.13-.88.16-1.17.4-.57 1.45-.44 1.36-1.34.27-.43.02-1 .02-1.45-.1-.34-.2.12-.37.1-.33.08-.67.1-.96-.07-.22-.22-.49-.41-.55-.72a1.7 1.7 0 01-.78-.67l.16-.04zM124.38 16.11c.44.07.9-.13 1.3.09-.09.14-.3.2-.48.24l-.7.32c-.26-.06-.11-.47-.12-.65zM126.19 7.48c.44-.15.92-.45 1.4-.3-.34.34-.61.78-.87 1.2l-1.42-.03c.16-.38.55-.69.89-.87zM130.34 7.14c.59-.1.56.66 1.1.69.1.12.23.24.17.42-.3.13-.76.07-1.11.15-.47-.26-.17-1.07-.9-1.02-.05-.06-.13-.18-.03-.22.23-.09.53-.06.77-.02zM129.97 9.9c.26-.36.65-.39 1.02-.46l2.69.05c.1.1-.1.2-.1.32-.17.16-.41.2-.56.34-.35.01-.32.43-.57.6-.38.39-.94.21-1.38.15a1.22 1.22 0 01-.4-.44l-.13.12c.15.58.11 1.22.23 1.8l.64.43c0 .95 1.13.7 1.61 1.22-.11.35-.34.63-.59.92-.39-.38-.84-.63-1.31-.8-.04-.55-.65-.88-1-1.16-.09-1.01-.1-2.05-.27-3.03l.12-.05zM130.94 16.29h1.24l-.15.65-1.25-.53c-.02-.1.09-.13.16-.12zM133.18 4.57l.92-.29c.53.25 1.02.56 1.51.91.38.7.32 1.66.14 2.44-.27.31-.89 0-1.11.5h-.05a4.52 4.52 0 00-2.21-2.29c.14-.5.3-.98.8-1.27z"/></g></svg>
