<svg xmlns="http://www.w3.org/2000/svg" viewBox="0 0 583.8 583.8"><path fill="#005ca5" d="M0 0h583.8v583.81H0z"/><path d="M291.9 33C148.9 33 33 148.9 33 292s115.9 258.8 258.9 258.8 259-115.9 259-258.8-116-259-259-259" fill="#ffe800" fill-rule="evenodd"/><path fill="#ea1b27" fill-rule="evenodd" d="M275.8 299.2l-45.7-45.7-52.7 52.8V324l13.3-13.3 36.8 36.8-13.6 13.6 8.8 8.9 73.6-73.7v-17.7l-20.5 20.6z"/><path fill="#005ca5" fill-rule="evenodd" d="M62.4 243.9h81.4v17.5h-13.5v56.8l47.1-26.2v48.1h-115v-17.6H76v-61.1H62.4v-17.5zM405.7 243.9v17.5h13.7v61.1h-13.7v17.6h115.1V292l-47.2 26.2v-56.8h13.6v-17.5h-81.5z"/><path d="M223.4 189.1a29 29 0 1 1-29 28.9 28.9 28.9 0 0 1 29-28.9" fill="#ea1b27" fill-rule="evenodd"/><path d="M291.9 15.5C139.3 15.5 15.5 139.3 15.5 292s123.8 276.4 276.4 276.4S568.4 444.6 568.4 292 444.5 15.5 291.9 15.5m0 535.3C148.9 550.8 33 434.9 33 292S148.9 33 291.9 33s259 115.9 259 259-116 258.8-259 258.8" fill="#ea1b27" fill-rule="evenodd"/><path d="M360.3 243.9h-77.6v17.5h13.6v61.1h-13.6v17.6h77.6c57.4 0 58-96.2 0-96.2" fill="#005ca5" fill-rule="evenodd"/><path d="M349.5 310.1h-3.9v-36.4h3.3c16.9 0 16.9 36.4.6 36.4" fill="#ffe800" fill-rule="evenodd"/></svg>