<svg xmlns="http://www.w3.org/2000/svg" viewBox="0 0 302.5 110.8"><path d="M110.8 55.4A55.4 55.4 0 1 1 55.4 0a55.4 55.4 0 0 1 55.4 55.2v.2" fill="#e30613"/><path d="M55.9 86.2c-15.2.1-31.1-12.9-31.1-33.7-.1-13.8 7.4-27.1 16.9-35s22-12.6 33.5-12.6a18.1 18.1 0 0 1 4 .4 23.1 23.1 0 0 0-18.1 22.1 2.8 2.8 0 0 0 .1.9C78 32.4 85.7 42.6 85.7 56.7a29.4 29.4 0 0 1-29.3 29.5h-.5" fill="#fff"/><path d="M165.7 27.9V.5h17.7v5h-12.5V12h10v4.8h-10v11.1zm25.8.4a6.7 6.7 0 0 1-5.3-2.1q-1.8-2.1-1.8-6.3V8.1h5.1v11.2a6.7 6.7 0 0 0 .7 3.4 2.7 2.7 0 0 0 2.5 1.2 5.4 5.4 0 0 0 2.5-.6l1.7-1.1V8.1h5.1v19.8h-4.7l-.2-1.6a7.8 7.8 0 0 1-2.8 1.6 13.5 13.5 0 0 1-2.8.4zm26.5-.4V16.6a5.4 5.4 0 0 0-.9-3.5 3.2 3.2 0 0 0-2.6-1.2 4.3 4.3 0 0 0-2.2.6l-1.8 1.3v14.1h-5V8.1h4.6l.2 1.6a7.2 7.2 0 0 1 2.7-1.5 8 8 0 0 1 3-.6 9.3 9.3 0 0 1 2.9.5 5.1 5.1 0 0 1 2.3 1.5 7 7 0 0 1 1.4 2.7 10.5 10.5 0 0 1 .5 3.9v11.7zm20.4 0l-.2-1.5a5.9 5.9 0 0 1-1.8 1.3 6.3 6.3 0 0 1-2.7.6 9 9 0 0 1-3.6-.8 9.6 9.6 0 0 1-2.6-2.3 10.6 10.6 0 0 1-1.6-3.4 13.2 13.2 0 0 1-.6-3.9 12.1 12.1 0 0 1 .6-3.8 10.4 10.4 0 0 1 1.7-3.3 10.9 10.9 0 0 1 2.9-2.3 9.9 9.9 0 0 1 4.2-.9 9.6 9.6 0 0 1 3.3.6V.5h5.1v27.4zm-.4-15.4a6.6 6.6 0 0 0-2.7-.6 3.7 3.7 0 0 0-2.3.5 4.7 4.7 0 0 0-1.5 1.3 6.6 6.6 0 0 0-.9 1.9 8.3 8.3 0 0 0-.3 2.2 9 9 0 0 0 .2 2.3 11.9 11.9 0 0 0 .8 2 9.3 9.3 0 0 0 1.4 1.4 4.6 4.6 0 0 0 2 .5 4.1 4.1 0 0 0 1.9-.5 2.9 2.9 0 0 0 1.4-1.3zm19 15.4l-.2-1.5a6 6 0 0 1-2.1 1.4 8.7 8.7 0 0 1-2.8.5 6.9 6.9 0 0 1-2.5-.4 8.2 8.2 0 0 1-2-1.2 9.5 9.5 0 0 1-1.5-2 6.3 6.3 0 0 1-.6-2.7 5.8 5.8 0 0 1 .6-2.6 7.4 7.4 0 0 1 1.6-1.9 10.1 10.1 0 0 1 2.3-1.2 11.2 11.2 0 0 1 2.6-.8l2.2-.3 1.9-.2v-.2a3 3 0 0 0-.8-2.4 3.9 3.9 0 0 0-2.3-.7l-1.7.2-1.4.5a4.1 4.1 0 0 0-1.1.7l-.7.5-1.7-3.6 1-.7 1.6-.8 2.2-.6a11.5 11.5 0 0 1 2.6-.3 15.4 15.4 0 0 1 3 .4 5.9 5.9 0 0 1 2.3 1.4 6.3 6.3 0 0 1 1.6 2.3 13.4 13.4 0 0 1 .5 3.5v12.7zm-.4-9.3h-1.7l-1.7.3a3.8 3.8 0 0 0-2.3 1.1 3 3 0 0 0-.6 1.8 2.4 2.4 0 0 0 .7 1.6 3.9 3.9 0 0 0 2.1.6 4.1 4.1 0 0 0 1.9-.5 5.4 5.4 0 0 0 1.6-1zm14.4 9.7a4.7 4.7 0 0 1-3.9-1.5 4.5 4.5 0 0 1-1.3-3.5V12.2H263V8.1h2.8V3h5.1v5.1h4.5v4.1h-4.5v10.1a1.6 1.6 0 0 0 .4 1.3 2 2 0 0 0 1.1.3 5 5 0 0 0 2.6-.8l1.3 3.6a10.1 10.1 0 0 1-2.3 1.2 10.3 10.3 0 0 1-3 .4zm-4.7 7l2.5-5.6h4.5l-3.4 5.6zm14-29a2.5 2.5 0 0 1-2.3-.9 3.2 3.2 0 0 1-.8-2 3 3 0 0 1 .8-2 2.5 2.5 0 0 1 2.3-.9 3.2 3.2 0 0 1 2.3.9 3.1 3.1 0 0 1 .7 2 3.1 3.1 0 0 1-.7 2 3.2 3.2 0 0 1-2.3.9zm-2.6 21.6V8.1h5.1v19.8zm19 0l-.2-1.5a6 6 0 0 1-2.1 1.4 8.7 8.7 0 0 1-2.8.5 6.9 6.9 0 0 1-2.5-.4 8.2 8.2 0 0 1-2-1.2 7.5 7.5 0 0 1-1.5-2 6.3 6.3 0 0 1-.6-2.7 5.8 5.8 0 0 1 .6-2.6 7.4 7.4 0 0 1 1.6-1.9 9.4 9.4 0 0 1 2.2-1.2 13.8 13.8 0 0 1 2.7-.8l2.2-.3 1.9-.2v-.2a3.1 3.1 0 0 0-.8-2.4 3.9 3.9 0 0 0-2.3-.7l-1.7.2-1.4.5a4.1 4.1 0 0 0-1.1.7c-.3.2-.6.3-.7.5l-1.7-3.6 1-.7 1.6-.8 2.2-.6a11.5 11.5 0 0 1 2.6-.3 15.4 15.4 0 0 1 3 .4 5.9 5.9 0 0 1 2.3 1.4 6.3 6.3 0 0 1 1.6 2.3 13.4 13.4 0 0 1 .5 3.5v12.7zm-.4-9.3h-1.7l-1.7.3a3.8 3.8 0 0 0-2.3 1.1 3 3 0 0 0-.6 1.8 2 2 0 0 0 .7 1.6 3.9 3.9 0 0 0 2.1.6 4.1 4.1 0 0 0 1.9-.5 5.4 5.4 0 0 0 1.6-1zM159.4 68.9l-10.1-27.4h5.6l6.9 20.7 6.8-20.7h5.2l-9.5 27.4zm33.1-10a12.1 12.1 0 0 1-.6 3.8 10.6 10.6 0 0 1-1.8 3.3 7.5 7.5 0 0 1-2.9 2.4 9.9 9.9 0 0 1-4.2.9 8.5 8.5 0 0 1-7.1-3.3 8.7 8.7 0 0 1-1.7-3.3 12.3 12.3 0 0 1 0-7.6 8.7 8.7 0 0 1 1.7-3.3 9.6 9.6 0 0 1 3-2.3 9.8 9.8 0 0 1 4.1-.9 9.9 9.9 0 0 1 4.2.9 10.9 10.9 0 0 1 2.9 2.3 10.6 10.6 0 0 1 1.8 3.3 12.1 12.1 0 0 1 .6 3.8zm-5 0a9.9 9.9 0 0 0-.3-2.4 6.6 6.6 0 0 0-.9-1.9 3.7 3.7 0 0 0-1.3-1.2 2.9 2.9 0 0 0-2-.5 2.6 2.6 0 0 0-1.9.5 5.3 5.3 0 0 0-1.4 1.2 6.6 6.6 0 0 0-.9 1.9 12.9 12.9 0 0 0 0 4.8 6.6 6.6 0 0 0 .9 1.9 8.6 8.6 0 0 0 1.4 1.3 4.1 4.1 0 0 0 1.9.4 4.5 4.5 0 0 0 2-.4 8 8 0 0 0 1.3-1.3 6.6 6.6 0 0 0 .9-1.9 9.9 9.9 0 0 0 .3-2.4zm19.2 10l-.2-1.5a5.9 5.9 0 0 1-1.8 1.3 6.3 6.3 0 0 1-2.7.6 9 9 0 0 1-3.6-.8 9.6 9.6 0 0 1-2.6-2.3 10.6 10.6 0 0 1-1.6-3.4 13.2 13.2 0 0 1-.6-3.9 12.1 12.1 0 0 1 .6-3.8 10.4 10.4 0 0 1 1.7-3.3 10.9 10.9 0 0 1 2.9-2.3 9.9 9.9 0 0 1 4.2-.9 9.6 9.6 0 0 1 3.3.6v-7.7h5.1v27.4zm-.4-15.4a6.6 6.6 0 0 0-2.7-.6 4.4 4.4 0 0 0-3.8 1.8 6.6 6.6 0 0 0-.9 1.9 8.3 8.3 0 0 0-.3 2.2 17.9 17.9 0 0 0 .2 2.3 11.9 11.9 0 0 0 .8 2l1.4 1.4a4.6 4.6 0 0 0 2 .5 4.1 4.1 0 0 0 1.9-.5 2.9 2.9 0 0 0 1.4-1.3zm19 15.4l-.2-1.5a6 6 0 0 1-2.1 1.4 8.7 8.7 0 0 1-2.8.5 6.9 6.9 0 0 1-2.5-.4 8.2 8.2 0 0 1-2-1.2 9.5 9.5 0 0 1-1.5-2 6.2 6.2 0 0 1-.5-2.7 5.8 5.8 0 0 1 .5-2.6 7.4 7.4 0 0 1 1.6-1.9 10.1 10.1 0 0 1 2.3-1.2 11.2 11.2 0 0 1 2.6-.8l2.2-.3 1.9-.2v-.2a3 3 0 0 0-.8-2.4 3.9 3.9 0 0 0-2.3-.7l-1.7.2-1.4.5-1.1.6-.7.6-1.7-3.6 1-.7 1.6-.8 2.2-.6a11.5 11.5 0 0 1 2.6-.3 15.4 15.4 0 0 1 3 .4 5.9 5.9 0 0 1 2.3 1.4 6.3 6.3 0 0 1 1.6 2.3 13.4 13.4 0 0 1 .5 3.5v12.7zm-.4-9.3h-1.7l-1.7.3a3.9 3.9 0 0 0-2.2 1.1 2.9 2.9 0 0 0-.7 1.8 2.4 2.4 0 0 0 .7 1.6 3.9 3.9 0 0 0 2.1.6 4.1 4.1 0 0 0 1.9-.5 5.4 5.4 0 0 0 1.6-1zM244.4 46l-1-.3a4.1 4.1 0 0 0-1.9-.2 2.7 2.7 0 0 0-1.7.6 2.4 2.4 0 0 0-.8 2.1v.9h4.3v4.1h-4.2v15.7H234V53.2h-2.6v-4.1h2.6V48a11.3 11.3 0 0 1 .5-3.2 6.4 6.4 0 0 1 1.4-2.2 3.7 3.7 0 0 1 2-1.2 7.5 7.5 0 0 1 2.6-.4 16.3 16.3 0 0 1 3.1.3l1.4.5zm18.1 12.9a12.1 12.1 0 0 1-.6 3.8 10.6 10.6 0 0 1-1.8 3.3 9.6 9.6 0 0 1-2.9 2.4 9.9 9.9 0 0 1-4.2.9 9.8 9.8 0 0 1-4.1-.9 8.9 8.9 0 0 1-3-2.4 10.6 10.6 0 0 1-1.8-3.3 12.3 12.3 0 0 1 0-7.6 10.6 10.6 0 0 1 1.8-3.3 9.6 9.6 0 0 1 3-2.3 9.8 9.8 0 0 1 4.1-.9 9.9 9.9 0 0 1 4.2.9 10.9 10.9 0 0 1 2.9 2.3 10.6 10.6 0 0 1 1.8 3.3 12.1 12.1 0 0 1 .6 3.8zm-5 0a9.9 9.9 0 0 0-.3-2.4 6.6 6.6 0 0 0-.9-1.9 3.3 3.3 0 0 0-1.4-1.2 3.9 3.9 0 0 0-3.8 0 4.1 4.1 0 0 0-1.4 1.2 6.6 6.6 0 0 0-.9 1.9 9.8 9.8 0 0 0 0 4.8 6.6 6.6 0 0 0 .9 1.9 4.4 4.4 0 0 0 1.4 1.3 4.7 4.7 0 0 0 3.8 0 4.4 4.4 0 0 0 1.4-1.3 6.6 6.6 0 0 0 .9-1.9 9.9 9.9 0 0 0 .3-2.4zm19.9 10V57.6a5.5 5.5 0 0 0-1-3.5 3.2 3.2 0 0 0-2.6-1.2 4.3 4.3 0 0 0-2.2.6 10.9 10.9 0 0 0-1.7 1.3v14.1h-5.1V49.1h4.6l.3 1.6a6.1 6.1 0 0 1 2.6-1.5 8 8 0 0 1 5.9-.1 5.1 5.1 0 0 1 2.3 1.5 7 7 0 0 1 1.4 2.7 13.2 13.2 0 0 1 .6 3.9v11.7zm12.3-8.6a4.8 4.8 0 0 0 1.6 3.6 5.2 5.2 0 0 0 3.6 1.1l1.9-.2 1.6-.5 1.2-.6.8-.5 1.3 4.2-.9.5-1.6.7-2.2.5-2.8.2a11.5 11.5 0 0 1-3.7-.6 7.3 7.3 0 0 1-3-1.9 9.9 9.9 0 0 1-2.1-3.2 12.1 12.1 0 0 1-.8-4.6 13.1 13.1 0 0 1 .7-4.4 11.2 11.2 0 0 1 2-3.3 8.4 8.4 0 0 1 2.9-2 8.9 8.9 0 0 1 3.6-.7 10.3 10.3 0 0 1 3.5.6 8.3 8.3 0 0 1 2.7 1.9 11.4 11.4 0 0 1 1.9 3.4 19.9 19.9 0 0 1 .6 4.9v.9zm7.7-3.7a4.1 4.1 0 0 0-.5-1.8 5 5 0 0 0-.8-1.2l-1.1-.7-1.3-.2a3.9 3.9 0 0 0-2.5 1 4.4 4.4 0 0 0-1.4 2.9zm-119 40.8a5.5 5.5 0 0 1 1.8 1.6 10.2 10.2 0 0 1 1.4 3.4l2 7.5h-5.4l-2.1-6.9a8.8 8.8 0 0 0-.5-1.5l-.6-1.1a2.4 2.4 0 0 0-.9-.6l-1.5-.2h-4v10.3h-5.1V82.5h9.5a12.4 12.4 0 0 1 3.3.4 8.4 8.4 0 0 1 2.9 1.3 6.7 6.7 0 0 1 2.2 2.5 8.8 8.8 0 0 1 .8 3.9 8.6 8.6 0 0 1-.9 3.9 8.1 8.1 0 0 1-2.9 2.9zm-1.4-6.2a3.8 3.8 0 0 0-1.1-3 5.7 5.7 0 0 0-3.6-.9h-3.7v7.6h3.7c3.1 0 4.7-1.2 4.7-3.7zm26.3 8.7a12.1 12.1 0 0 1-.6 3.8 10.6 10.6 0 0 1-1.8 3.3 9.6 9.6 0 0 1-2.9 2.4 9.3 9.3 0 0 1-13.1-5.7 12.3 12.3 0 0 1 0-7.6 10.6 10.6 0 0 1 1.8-3.3 10.9 10.9 0 0 1 2.9-2.3 10.2 10.2 0 0 1 8.4 0 10.9 10.9 0 0 1 2.9 2.3 10.6 10.6 0 0 1 1.8 3.3 12.1 12.1 0 0 1 .6 3.8zm-5 0a9.9 9.9 0 0 0-.3-2.4 6.6 6.6 0 0 0-.9-1.9 4.1 4.1 0 0 0-1.4-1.2 3.7 3.7 0 0 0-3.8 0 4.1 4.1 0 0 0-1.4 1.2 6.6 6.6 0 0 0-.9 1.9 9.8 9.8 0 0 0 0 4.8 6.6 6.6 0 0 0 .9 1.9 4.4 4.4 0 0 0 1.4 1.3 5 5 0 0 0 3.8 0 8.6 8.6 0 0 0 1.4-1.3 6.6 6.6 0 0 0 .9-1.9 9.9 9.9 0 0 0 .3-2.4zm31.6 10V98.3a7.1 7.1 0 0 0-.7-3.2 3.1 3.1 0 0 0-2.8-1.2 2.5 2.5 0 0 0-1.2.2l-1.1.4-.9.5-.7.5c.1.3.1.7.2 1.1a5.3 5.3 0 0 1 .1 1.3v12h-5.1V98.3a9.9 9.9 0 0 0-.2-1.7 2.4 2.4 0 0 0-.5-1.4 2.8 2.8 0 0 0-.9-1 4 4 0 0 0-1.5-.3 4.3 4.3 0 0 0-2.2.6 7 7 0 0 0-1.7 1.3v14.1h-5.1V90.1h4.7l.2 1.5a6.4 6.4 0 0 1 2.2-1.4 6.3 6.3 0 0 1 2.7-.6 13.5 13.5 0 0 1 2.8.4 6.4 6.4 0 0 1 2.5 1.5 11.4 11.4 0 0 1 3-1.3 11.1 11.1 0 0 1 7.2 0 6.3 6.3 0 0 1 2.4 1.6 6.8 6.8 0 0 1 1.3 2.7 20.9 20.9 0 0 1 .4 3.5v11.9zm18.8 0l-.2-1.5a4.9 4.9 0 0 1-2.1 1.4 7.7 7.7 0 0 1-5.2.1 7.2 7.2 0 0 1-2.1-1.2 9.5 9.5 0 0 1-1.5-2 8.6 8.6 0 0 1-.5-2.7 7.5 7.5 0 0 1 .5-2.6 7.4 7.4 0 0 1 1.6-1.9 10.1 10.1 0 0 1 2.3-1.2 11.2 11.2 0 0 1 2.6-.8l2.2-.3 2-.2v-.2a3 3 0 0 0-.9-2.4 3.9 3.9 0 0 0-2.3-.7l-1.7.2-1.4.5-1.1.7-.7.5-1.7-3.6 1-.7 1.6-.8 2.2-.6a11.5 11.5 0 0 1 2.6-.3 15.4 15.4 0 0 1 3 .4 7.2 7.2 0 0 1 2.4 1.4 9.1 9.1 0 0 1 1.5 2.3 8.3 8.3 0 0 1 .5 3.5v12.7zm-6.8-22.3l-2.6-1.9 4.7-5.3h3.8l4.6 5.3-2.6 1.8-4-3.9zm6.4 13l-1.7.2-1.6.2a3.8 3.8 0 0 0-2.3 1.1 2.9 2.9 0 0 0-.7 1.8 2.4 2.4 0 0 0 .7 1.6 3.9 3.9 0 0 0 2.1.6 4.1 4.1 0 0 0 1.9-.5 5.4 5.4 0 0 0 1.6-1zm21 9.3V98.6a5.5 5.5 0 0 0-1-3.5 3.2 3.2 0 0 0-2.6-1.2 4.3 4.3 0 0 0-2.2.6l-1.7 1.3v14.1h-5.1V90.1h4.6l.3 1.6a7.2 7.2 0 0 1 2.7-1.5 8 8 0 0 1 3-.6 9.3 9.3 0 0 1 2.9.5 5.4 5.4 0 0 1 2.2 1.5 7.2 7.2 0 0 1 1.5 2.7 17.4 17.4 0 0 1 .5 3.9v11.7zm11-21.6a2.5 2.5 0 0 1-2.3-.9 3.2 3.2 0 0 1-.8-2 3 3 0 0 1 .8-2 2.5 2.5 0 0 1 2.3-.9 3.2 3.2 0 0 1 2.3.9 3.2 3.2 0 0 1 0 4 3.2 3.2 0 0 1-2.3.9zm-2.6 21.6V90.1h5.1v19.8zm19 0l-.2-1.5a6 6 0 0 1-2.1 1.4 6.6 6.6 0 0 1-2.8.5 6.9 6.9 0 0 1-2.5-.4 8.2 8.2 0 0 1-2-1.2 7.5 7.5 0 0 1-1.5-2 6.3 6.3 0 0 1-.6-2.7 5.8 5.8 0 0 1 .6-2.6 7.4 7.4 0 0 1 1.6-1.9 9.4 9.4 0 0 1 2.2-1.2 13.8 13.8 0 0 1 2.7-.8l2.2-.3 1.9-.2v-.2a3.1 3.1 0 0 0-.8-2.4 3.9 3.9 0 0 0-2.3-.7l-1.7.2-1.4.5a4.1 4.1 0 0 0-1.1.7c-.3.2-.6.3-.7.5l-1.7-3.6 1-.7 1.6-.8 2.2-.6a11.5 11.5 0 0 1 2.6-.3 15.4 15.4 0 0 1 3 .4 5.9 5.9 0 0 1 2.3 1.4 6.3 6.3 0 0 1 1.6 2.3 13.4 13.4 0 0 1 .5 3.5v12.7zm-.4-9.3l-1.7.2-1.7.2a3.8 3.8 0 0 0-2.3 1.1 3 3 0 0 0-.6 1.8 2 2 0 0 0 .7 1.6 3.9 3.9 0 0 0 2.1.6 4.1 4.1 0 0 0 1.9-.5 5.4 5.4 0 0 0 1.6-1z" fill="#e30613"/></svg>