<svg xmlns="http://www.w3.org/2000/svg" viewBox="0 0 250 70"><title>Code for Romania Logo</title><path d="M103.7 31.7c-4.8 0-9.7-3-9.7-11.2s4.9-11.1 9.7-11.1a9.3 9.3 0 0 1 7.2 3l-3 3c-1.4-1.5-2.5-2.1-4.2-2.1a5 5 0 0 0-4 1.9c-.9 1.2-1.3 2.8-1.3 5.3s.4 4.2 1.3 5.3a4.8 4.8 0 0 0 4 2c1.7 0 2.8-.6 4.2-2.1l3 2.9a8.9 8.9 0 0 1-7.2 3.1zm25.6-2.5a9 9 0 0 1-6.5 2.5 8.9 8.9 0 0 1-6.5-2.5c-2.1-2.2-2.6-4.9-2.6-8.6s.5-6.4 2.6-8.5a8.5 8.5 0 0 1 6.5-2.6 8.7 8.7 0 0 1 6.5 2.6c2.1 2.1 2.5 4.8 2.5 8.5s-.5 6.4-2.5 8.6zM126 14.6a4.6 4.6 0 0 0-3.2-1.3 4.4 4.4 0 0 0-3.2 1.3c-1.3 1.3-1.5 3.6-1.5 5.9s.2 4.7 1.5 6a4.4 4.4 0 0 0 3.2 1.3 4.6 4.6 0 0 0 3.2-1.3c1.3-1.3 1.5-3.6 1.5-6s-.2-4.6-1.5-5.9zm23.3 16.9v-2.3a7.1 7.1 0 0 1-5.8 2.5 7.4 7.4 0 0 1-5.3-1.9c-2.2-2.2-2.5-5.9-2.5-9.3s.3-7 2.5-9.1a7.5 7.5 0 0 1 5.3-2 6.8 6.8 0 0 1 5.7 2.5V.9h4.4v30.6zm-4.6-18.2c-4 0-4.6 3.4-4.6 7.2s.6 7.3 4.6 7.3 4.5-3.4 4.5-7.3-.6-7.2-4.5-7.2zm17.1 8.6c0 3.7 2 6.1 5.5 6.1a6.3 6.3 0 0 0 5.3-2.3l2.8 2.7a10.2 10.2 0 0 1-8.1 3.4c-5.5 0-9.8-2.9-9.8-11.2s3.6-11.1 9.2-11.1 9.2 4.3 9.2 10.4v2zm9.2-6a4.4 4.4 0 0 0-4.3-2.8 4.6 4.6 0 0 0-4.4 2.8 6.3 6.3 0 0 0-.5 2.9h9.7a6.3 6.3 0 0 0-.5-2.9zm24.3-2.4v18.1h-4.4V13.5h-2.5v-3.3h2.5V6.8c0-3.1 1.9-6 5.9-6h2.8v3.7h-2c-1.6 0-2.4.9-2.4 2.6v3.1h4.4v3.3zM217 29.2a8.7 8.7 0 0 1-6.5 2.6 8.5 8.5 0 0 1-6.5-2.6c-2.1-2.1-2.6-4.8-2.6-8.5s.5-6.4 2.6-8.5a8.5 8.5 0 0 1 6.5-2.6 8.7 8.7 0 0 1 6.5 2.6c2.1 2.1 2.5 4.8 2.5 8.5s-.5 6.4-2.5 8.5zm-3.3-14.5a4.6 4.6 0 0 0-3.2-1.3 4.4 4.4 0 0 0-3.2 1.3c-1.3 1.3-1.5 3.6-1.5 5.9s.2 4.7 1.5 6a4.4 4.4 0 0 0 3.2 1.3 4.6 4.6 0 0 0 3.2-1.3c1.3-1.3 1.5-3.6 1.5-6s-.2-4.6-1.5-5.9zm21.3.2a3.9 3.9 0 0 0-3.2-1.5c-2.4 0-4.4 1.9-4.4 4.9v13.2H223V9.7h4.3v2.4a7.6 7.6 0 0 1 5.8-2.6 6.8 6.8 0 0 1 5.2 2.1zM111.3 69.8l-6.4-12.9h-5.8v12.9h-4.6V39.2h11.8c5.8 0 9.5 3.7 9.5 8.9a8 8 0 0 1-6.1 8.1l7 13.6zm-5.4-26.4h-6.8V53h6.8c3.1 0 5.3-1.8 5.3-4.8s-2.1-4.8-5.3-4.8zm29.2 24a9.4 9.4 0 0 1-13 0c-2.1-2.1-2.6-4.8-2.6-8.5s.6-6.4 2.6-8.5a9.4 9.4 0 0 1 13 0c2.1 2.1 2.6 4.8 2.6 8.5s-.5 6.4-2.6 8.5zm-3.3-14.5a4.9 4.9 0 0 0-6.4 0c-1.3 1.3-1.5 3.6-1.5 6s.2 4.6 1.5 5.9a4.6 4.6 0 0 0 6.4 0c1.3-1.3 1.5-3.6 1.5-5.9s-.2-4.7-1.5-6zm36.8 16.9V56.5c0-3.4-1.9-4.8-4.4-4.8a4.3 4.3 0 0 0-4.5 4.6v13.5h-4.4V56.6c0-3.4-1.9-4.9-4.3-4.9s-4.5 1.5-4.5 4.9v13.2h-4.4V48h4.3v2.2a7.6 7.6 0 0 1 5.7-2.4 6.9 6.9 0 0 1 6.2 3.1 8.5 8.5 0 0 1 6.9-3.1 7.7 7.7 0 0 1 5.4 1.9 8.2 8.2 0 0 1 2.4 6.2v13.9zm22.3 0v-2a7.1 7.1 0 0 1-5.8 2.2c-2.7 0-4.5-.7-5.8-2a6.6 6.6 0 0 1-1.7-4.7c0-3.6 2.6-6.2 7.5-6.2h5.7v-1.6c0-2.7-1.4-4.1-4.8-4.1s-3.5.6-4.7 2.1l-2.9-2.7c2-2.4 4.2-3.1 7.8-3.1 5.9 0 9 2.6 9 7.5v14.5zm-.1-9.6h-5.1c-2.6 0-3.9 1.1-3.9 3.1s1.2 3.1 3.9 3.1 3-.2 4.1-1.3 1-1.6 1-3.2v-1.7zm22.9 9.6V56.5c0-3.4-1.9-4.8-4.3-4.8s-4.5 1.5-4.5 4.8v13.3h-4.4V48h4.3v2.2a7.9 7.9 0 0 1 5.7-2.5 7.3 7.3 0 0 1 5.4 2c1.7 1.6 2.2 3.7 2.2 6.1v14zm9.5-32.1h4.6v4.64h-4.6zm.1 10.3h4.4v21.77h-4.4zm22 21.8v-2a6.9 6.9 0 0 1-5.7 2.2 8.1 8.1 0 0 1-5.9-2 6.6 6.6 0 0 1-1.7-4.7c0-3.6 2.5-6.2 7.6-6.2h5.6v-1.6c0-2.7-1.3-4.1-4.7-4.1s-3.6.6-4.8 2.1l-2.9-2.7c2.1-2.4 4.2-3.1 7.8-3.1 6 0 9 2.6 9 7.5v14.5zm-.1-9.6h-5.1c-2.5 0-3.9 1.1-3.9 3.1s1.2 3.1 4 3.1a5.1 5.1 0 0 0 4-1.3c.7-.6 1-1.6 1-3.2v-1.7z"/><path fill="#00F" opacity=".05" d="M79.2 35.2L59.4 2.1 42.7 0l-.2 33.5 36.7 1.7z"/><path fill="#00F" opacity=".15" d="M42.5 33.5l-.2 36 18.9-1.4 18.1-32.7-.1-.2-36.7-1.7z"/><path fill="#00F" opacity=".15" d="M42.5 33.5L42.7 0 25.2 2.1 5 35.1l37.5-1.6z"/><path fill="#00F" opacity=".3" d="M5 35.1l-.1.3 18.6 32.7 18.7 1.4h.1l.2-36L5 35.1z"/><path fill="#00F" d="M19.7 2.8L.4 35.6l18 32.2 9.4.6L9.4 34.9 29.6 1.6l-9.9 1.2zm45.5.3L55.1 1.6 74.8 35 57.1 68.5l9.4-.7L83.6 35 65.2 3.1z"/></svg>
