<svg xmlns="http://www.w3.org/2000/svg" viewBox="0 0 440 75"><title>Civic Labs Logo</title><path class="text" fill="#FFF" d="M55.6 54.8l6.9 13.7S54.6 75 39.2 75C19.3 75 .9 58.7.9 38.5S19.2 1.7 39.2 1.7c15.4 0 23.3 6.5 23.3 6.5l-6.9 13.7a24.6 24.6 0 0 0-13.9-4.3c-16.2 0-23.3 11.3-23.3 20.7s7.1 20.8 23.3 20.8a24.6 24.6 0 0 0 13.9-4.3zm29.8-43.2a9 9 0 1 1-9-9 9 9 0 0 1 9 9zM68.6 73.7h15.2v-44H68.6zm96.2-62.1a9 9 0 1 1-9-9 9 9 0 0 1 9 9zM148 73.7h15.2v-44H148zm38.8-22a10.7 10.7 0 0 0 10.5 10.9 13.5 13.5 0 0 0 7.4-2.1l5.1 10.6s-5 3.9-14.7 3.9c-12.7 0-24.4-10.3-24.4-23.1s11.6-23.4 24.4-23.4c9.7 0 14.7 4.1 14.7 4.1l-5.1 10.3a14 14 0 0 0-7.4-2 10.6 10.6 0 0 0-10.5 10.8zm68.7 7.9h24.3v14.1h-40.4V3h16.1zm51-31.1c5.9 0 10.8 1.9 14.4 5.4v-4.2h15.2v44h-15v-5h-.2a19.6 19.6 0 0 1-14.4 6.3c-12.9 0-21.9-10.4-21.9-23.2s9-23.3 21.9-23.3zm4.5 33.6a9.9 9.9 0 0 0 10.2-10.3 10.3 10.3 0 1 0-20.5 0A9.9 9.9 0 0 0 311 62.1zM375.9 75a19.6 19.6 0 0 1-14.4-6.3h-.2v5h-15V0h15.2v33.9c3.6-3.5 8.5-5.4 14.4-5.4 12.9 0 21.9 10.4 21.9 23.3s-9 23.2-21.9 23.2zm-4.5-33.6a10 10 0 0 0-10.2 10.4c0 6 4.2 10.3 10.2 10.3s10.2-4.3 10.2-10.3a10 10 0 0 0-10.2-10.4zm66.9-9.5l-5 9.9s-5.1-2.7-9.7-2.7-4.8.6-4.8 2.6 3.1 3 6.9 4.2c5.8 1.8 13.4 5.1 13.4 14.1 0 12.9-11.9 15-20.9 15a26.1 26.1 0 0 1-16.9-5.9l6.1-10.4s6 5.1 10.9 5.1c2.2 0 4.7-.3 4.7-3.2s-4.8-3.4-9.7-6-8.9-5.4-8.9-12c0-9 7.6-14.1 19.2-14.1a33.9 33.9 0 0 1 14.7 3.4z"/><path fill="#FC0" d="M138.2 73.7L94 29.5h44.2v44.2z"/></svg>
